<?xml version="1.0" encoding="utf-8" standalone="no"?>
<!DOCTYPE svg PUBLIC "-//W3C//DTD SVG 1.1//EN"
  "http://www.w3.org/Graphics/SVG/1.1/DTD/svg11.dtd">
<svg xmlns:xlink="http://www.w3.org/1999/xlink" width="864pt" height="360pt" viewBox="0 0 864 360" xmlns="http://www.w3.org/2000/svg" version="1.1">
 <metadata>
  <rdf:RDF xmlns:dc="http://purl.org/dc/elements/1.1/" xmlns:cc="http://creativecommons.org/ns#" xmlns:rdf="http://www.w3.org/1999/02/22-rdf-syntax-ns#">
   <cc:Work>
    <dc:type rdf:resource="http://purl.org/dc/dcmitype/StillImage"/>
    <dc:date>2023-08-01T18:13:02.394276</dc:date>
    <dc:format>image/svg+xml</dc:format>
    <dc:creator>
     <cc:Agent>
      <dc:title>Matplotlib v3.7.0, https://matplotlib.org/</dc:title>
     </cc:Agent>
    </dc:creator>
   </cc:Work>
  </rdf:RDF>
 </metadata>
 <defs>
  <style type="text/css">*{stroke-linejoin: round; stroke-linecap: butt}</style>
 </defs>
 <g id="figure_1">
  <g id="patch_1">
   <path d="M 0 360 
L 864 360 
L 864 0 
L 0 0 
z
" style="fill: #ffffff"/>
  </g>
  <g id="axes_1">
   <g id="patch_2">
    <path d="M 108 169.2 
L 412.363636 169.2 
L 412.363636 43.2 
L 108 43.2 
z
" style="fill: #ffffff"/>
   </g>
   <g id="patch_3">
    <path d="M 121.834711 169.2 
L 159.99943 169.2 
L 159.99943 94.93991 
L 121.834711 94.93991 
z
" clip-path="url(#p74ba825849)" style="fill: #ff0000"/>
   </g>
   <g id="patch_4">
    <path d="M 169.54061 169.2 
L 207.705329 169.2 
L 207.705329 113.773991 
L 169.54061 113.773991 
z
" clip-path="url(#p74ba825849)" style="fill: #ff0000"/>
   </g>
   <g id="patch_5">
    <path d="M 217.246509 169.2 
L 255.411228 169.2 
L 255.411228 49.2 
L 217.246509 49.2 
z
" clip-path="url(#p74ba825849)" style="fill: #ff0000"/>
   </g>
   <g id="patch_6">
    <path d="M 264.952408 169.2 
L 303.117127 169.2 
L 303.117127 66.957848 
L 264.952408 66.957848 
z
" clip-path="url(#p74ba825849)" style="fill: #ff0000"/>
   </g>
   <g id="patch_7">
    <path d="M 312.658307 169.2 
L 350.823027 169.2 
L 350.823027 148.75157 
L 312.658307 148.75157 
z
" clip-path="url(#p74ba825849)" style="fill: #ff0000"/>
   </g>
   <g id="patch_8">
    <path d="M 360.364206 169.2 
L 398.528926 169.2 
L 398.528926 155.208969 
L 360.364206 155.208969 
z
" clip-path="url(#p74ba825849)" style="fill: #ff0000"/>
   </g>
   <g id="matplotlib.axis_1">
    <g id="xtick_1">
     <g id="line2d_1">
      <defs>
       <path id="m564993c781" d="M 0 0 
L 0 3.5 
" style="stroke: #000000; stroke-width: 0.8"/>
      </defs>
      <g>
       <use xlink:href="#m564993c781" x="140.91707" y="169.2" style="stroke: #000000; stroke-width: 0.8"/>
      </g>
     </g>
     <g id="text_1">
      <!-- 28 -->
      <g transform="translate(135.91707 183.075) scale(0.1 -0.1)">
       <defs>
        <path id="SimHei-32" d="M 300 250 
Q 325 625 650 925 
Q 975 1225 1475 1862 
Q 1975 2500 2125 2850 
Q 2275 3200 2237 3450 
Q 2200 3700 2000 3862 
Q 1800 4025 1537 4000 
Q 1275 3975 1037 3800 
Q 800 3625 675 3275 
L 200 3350 
Q 400 3925 712 4187 
Q 1025 4450 1450 4475 
Q 1700 4500 1900 4462 
Q 2100 4425 2312 4287 
Q 2525 4150 2662 3875 
Q 2800 3600 2762 3212 
Q 2725 2825 2375 2287 
Q 2025 1750 1025 600 
L 2825 600 
L 2825 150 
L 300 150 
L 300 250 
z
" transform="scale(0.015625)"/>
        <path id="SimHei-38" d="M 175 1375 
Q 175 1675 325 1962 
Q 475 2250 825 2425 
Q 525 2600 425 2812 
Q 325 3025 312 3300 
Q 300 3575 387 3775 
Q 475 3975 650 4150 
Q 825 4325 1037 4387 
Q 1250 4450 1500 4450 
Q 1750 4450 1950 4400 
Q 2150 4350 2375 4187 
Q 2600 4025 2700 3725 
Q 2800 3425 2687 3025 
Q 2575 2625 2100 2400 
Q 2525 2275 2700 2012 
Q 2875 1750 2875 1375 
Q 2875 1000 2762 775 
Q 2650 550 2512 400 
Q 2375 250 2137 162 
Q 1900 75 1537 75 
Q 1175 75 912 162 
Q 650 250 475 425 
Q 300 600 237 837 
Q 175 1075 175 1375 
z
M 687 1400 
Q 675 1100 787 875 
Q 900 650 1200 587 
Q 1500 525 1825 600 
Q 2150 675 2275 950 
Q 2400 1225 2362 1500 
Q 2325 1775 2050 1962 
Q 1775 2150 1450 2125 
Q 1125 2100 912 1900 
Q 700 1700 687 1400 
z
M 775 3350 
Q 775 3100 950 2875 
Q 1125 2650 1500 2650 
Q 1875 2650 2062 2875 
Q 2250 3100 2237 3412 
Q 2225 3725 2012 3875 
Q 1800 4025 1437 4000 
Q 1075 3975 925 3787 
Q 775 3600 775 3350 
z
" transform="scale(0.015625)"/>
       </defs>
       <use xlink:href="#SimHei-32"/>
       <use xlink:href="#SimHei-38" x="50"/>
      </g>
     </g>
    </g>
    <g id="xtick_2">
     <g id="line2d_2">
      <g>
       <use xlink:href="#m564993c781" x="188.62297" y="169.2" style="stroke: #000000; stroke-width: 0.8"/>
      </g>
     </g>
     <g id="text_2">
      <!-- 38 -->
      <g transform="translate(183.62297 183.075) scale(0.1 -0.1)">
       <defs>
        <path id="SimHei-33" d="M 250 1225 
L 700 1300 
Q 800 975 1025 762 
Q 1250 550 1587 562 
Q 1925 575 2125 837 
Q 2325 1100 2300 1437 
Q 2275 1775 2037 1962 
Q 1800 2150 1275 2225 
L 1275 2550 
Q 1800 2600 2037 2825 
Q 2275 3050 2250 3412 
Q 2225 3775 1925 3937 
Q 1625 4100 1287 3975 
Q 950 3850 750 3275 
L 300 3350 
Q 450 3800 712 4100 
Q 975 4400 1425 4450 
Q 1875 4500 2212 4337 
Q 2550 4175 2687 3837 
Q 2825 3500 2725 3100 
Q 2625 2700 2150 2400 
Q 2500 2250 2687 1950 
Q 2875 1650 2812 1162 
Q 2750 675 2375 375 
Q 2000 75 1525 87 
Q 1050 100 700 387 
Q 350 675 250 1225 
z
" transform="scale(0.015625)"/>
       </defs>
       <use xlink:href="#SimHei-33"/>
       <use xlink:href="#SimHei-38" x="50"/>
      </g>
     </g>
    </g>
    <g id="xtick_3">
     <g id="line2d_3">
      <g>
       <use xlink:href="#m564993c781" x="236.328869" y="169.2" style="stroke: #000000; stroke-width: 0.8"/>
      </g>
     </g>
     <g id="text_3">
      <!-- 50008168 -->
      <g transform="translate(216.328869 183.075) scale(0.1 -0.1)">
       <defs>
        <path id="SimHei-35" d="M 550 1325 
Q 725 650 1150 575 
Q 1575 500 1837 662 
Q 2100 825 2212 1087 
Q 2325 1350 2312 1675 
Q 2300 2000 2137 2225 
Q 1975 2450 1725 2525 
Q 1475 2600 1162 2525 
Q 850 2450 650 2175 
L 225 2225 
Q 275 2375 700 4375 
L 2675 4375 
L 2675 3925 
L 1075 3925 
Q 950 3250 825 2850 
Q 1200 3025 1525 3012 
Q 1850 3000 2150 2862 
Q 2450 2725 2587 2487 
Q 2725 2250 2787 2012 
Q 2850 1775 2837 1500 
Q 2825 1225 2725 937 
Q 2625 650 2425 462 
Q 2225 275 1937 162 
Q 1650 50 1275 75 
Q 900 100 562 350 
Q 225 600 100 1200 
L 550 1325 
z
" transform="scale(0.015625)"/>
        <path id="SimHei-30" d="M 225 2537 
Q 250 3200 412 3587 
Q 575 3975 875 4225 
Q 1175 4475 1612 4475 
Q 2050 4475 2375 4112 
Q 2700 3750 2800 3200 
Q 2900 2650 2862 1937 
Q 2825 1225 2612 775 
Q 2400 325 1975 150 
Q 1550 -25 1125 187 
Q 700 400 525 750 
Q 350 1100 275 1487 
Q 200 1875 225 2537 
z
M 750 2687 
Q 675 2000 800 1462 
Q 925 925 1212 700 
Q 1500 475 1800 612 
Q 2100 750 2237 1162 
Q 2375 1575 2375 2062 
Q 2375 2550 2337 2950 
Q 2300 3350 2112 3675 
Q 1925 4000 1612 4012 
Q 1300 4025 1062 3700 
Q 825 3375 750 2687 
z
" transform="scale(0.015625)"/>
        <path id="SimHei-31" d="M 1400 3600 
Q 1075 3275 575 2975 
L 575 3450 
Q 1200 3875 1600 4450 
L 1900 4450 
L 1900 150 
L 1400 150 
L 1400 3600 
z
" transform="scale(0.015625)"/>
        <path id="SimHei-36" d="M 250 1612 
Q 275 1975 387 2225 
Q 500 2475 725 2850 
L 1750 4450 
L 2325 4450 
L 1275 2800 
Q 1950 2975 2350 2750 
Q 2750 2525 2887 2237 
Q 3025 1950 3037 1612 
Q 3050 1275 2937 950 
Q 2825 625 2537 362 
Q 2250 100 1737 75 
Q 1225 50 862 262 
Q 500 475 362 862 
Q 225 1250 250 1612 
z
M 1025 787 
Q 1250 550 1625 525 
Q 2000 500 2250 775 
Q 2500 1050 2500 1575 
Q 2500 2100 2187 2300 
Q 1875 2500 1487 2450 
Q 1100 2400 925 2075 
Q 750 1750 775 1387 
Q 800 1025 1025 787 
z
" transform="scale(0.015625)"/>
       </defs>
       <use xlink:href="#SimHei-35"/>
       <use xlink:href="#SimHei-30" x="50"/>
       <use xlink:href="#SimHei-30" x="100"/>
       <use xlink:href="#SimHei-30" x="150"/>
       <use xlink:href="#SimHei-38" x="200"/>
       <use xlink:href="#SimHei-31" x="250"/>
       <use xlink:href="#SimHei-36" x="300"/>
       <use xlink:href="#SimHei-38" x="350"/>
      </g>
     </g>
    </g>
    <g id="xtick_4">
     <g id="line2d_4">
      <g>
       <use xlink:href="#m564993c781" x="284.034768" y="169.2" style="stroke: #000000; stroke-width: 0.8"/>
      </g>
     </g>
     <g id="text_4">
      <!-- 50014815 -->
      <g transform="translate(264.034768 183.075) scale(0.1 -0.1)">
       <defs>
        <path id="SimHei-34" d="M 2000 1100 
L 75 1100 
L 75 1525 
L 2100 4450 
L 2475 4450 
L 2475 1525 
L 3075 1525 
L 3075 1100 
L 2475 1100 
L 2475 150 
L 2000 150 
L 2000 1100 
z
M 2000 1525 
L 2000 3500 
L 600 1525 
L 2000 1525 
z
" transform="scale(0.015625)"/>
       </defs>
       <use xlink:href="#SimHei-35"/>
       <use xlink:href="#SimHei-30" x="50"/>
       <use xlink:href="#SimHei-30" x="100"/>
       <use xlink:href="#SimHei-31" x="150"/>
       <use xlink:href="#SimHei-34" x="200"/>
       <use xlink:href="#SimHei-38" x="250"/>
       <use xlink:href="#SimHei-31" x="300"/>
       <use xlink:href="#SimHei-35" x="350"/>
      </g>
     </g>
    </g>
    <g id="xtick_5">
     <g id="line2d_5">
      <g>
       <use xlink:href="#m564993c781" x="331.740667" y="169.2" style="stroke: #000000; stroke-width: 0.8"/>
      </g>
     </g>
     <g id="text_5">
      <!-- 50022520 -->
      <g transform="translate(311.740667 183.075) scale(0.1 -0.1)">
       <use xlink:href="#SimHei-35"/>
       <use xlink:href="#SimHei-30" x="50"/>
       <use xlink:href="#SimHei-30" x="100"/>
       <use xlink:href="#SimHei-32" x="150"/>
       <use xlink:href="#SimHei-32" x="200"/>
       <use xlink:href="#SimHei-35" x="250"/>
       <use xlink:href="#SimHei-32" x="300"/>
       <use xlink:href="#SimHei-30" x="350"/>
      </g>
     </g>
    </g>
    <g id="xtick_6">
     <g id="line2d_6">
      <g>
       <use xlink:href="#m564993c781" x="379.446566" y="169.2" style="stroke: #000000; stroke-width: 0.8"/>
      </g>
     </g>
     <g id="text_6">
      <!-- 122650008 -->
      <g transform="translate(356.946566 183.075) scale(0.1 -0.1)">
       <use xlink:href="#SimHei-31"/>
       <use xlink:href="#SimHei-32" x="50"/>
       <use xlink:href="#SimHei-32" x="100"/>
       <use xlink:href="#SimHei-36" x="150"/>
       <use xlink:href="#SimHei-35" x="200"/>
       <use xlink:href="#SimHei-30" x="250"/>
       <use xlink:href="#SimHei-30" x="300"/>
       <use xlink:href="#SimHei-30" x="350"/>
       <use xlink:href="#SimHei-38" x="400"/>
      </g>
     </g>
    </g>
   </g>
   <g id="matplotlib.axis_2">
    <g id="ytick_1">
     <g id="line2d_7">
      <defs>
       <path id="mbee826a61e" d="M 0 0 
L -3.5 0 
" style="stroke: #000000; stroke-width: 0.8"/>
      </defs>
      <g>
       <use xlink:href="#mbee826a61e" x="108" y="169.2" style="stroke: #000000; stroke-width: 0.8"/>
      </g>
     </g>
     <g id="text_7">
      <!-- 0 -->
      <g transform="translate(96 172.6375) scale(0.1 -0.1)">
       <use xlink:href="#SimHei-30"/>
      </g>
     </g>
    </g>
    <g id="ytick_2">
     <g id="line2d_8">
      <g>
       <use xlink:href="#mbee826a61e" x="108" y="142.29417" style="stroke: #000000; stroke-width: 0.8"/>
      </g>
     </g>
     <g id="text_8">
      <!-- 50 -->
      <g transform="translate(91 145.73167) scale(0.1 -0.1)">
       <use xlink:href="#SimHei-35"/>
       <use xlink:href="#SimHei-30" x="50"/>
      </g>
     </g>
    </g>
    <g id="ytick_3">
     <g id="line2d_9">
      <g>
       <use xlink:href="#mbee826a61e" x="108" y="115.388341" style="stroke: #000000; stroke-width: 0.8"/>
      </g>
     </g>
     <g id="text_9">
      <!-- 100 -->
      <g transform="translate(86 118.825841) scale(0.1 -0.1)">
       <use xlink:href="#SimHei-31"/>
       <use xlink:href="#SimHei-30" x="50"/>
       <use xlink:href="#SimHei-30" x="100"/>
      </g>
     </g>
    </g>
    <g id="ytick_4">
     <g id="line2d_10">
      <g>
       <use xlink:href="#mbee826a61e" x="108" y="88.482511" style="stroke: #000000; stroke-width: 0.8"/>
      </g>
     </g>
     <g id="text_10">
      <!-- 150 -->
      <g transform="translate(86 91.920011) scale(0.1 -0.1)">
       <use xlink:href="#SimHei-31"/>
       <use xlink:href="#SimHei-35" x="50"/>
       <use xlink:href="#SimHei-30" x="100"/>
      </g>
     </g>
    </g>
    <g id="ytick_5">
     <g id="line2d_11">
      <g>
       <use xlink:href="#mbee826a61e" x="108" y="61.576682" style="stroke: #000000; stroke-width: 0.8"/>
      </g>
     </g>
     <g id="text_11">
      <!-- 200 -->
      <g transform="translate(86 65.014182) scale(0.1 -0.1)">
       <use xlink:href="#SimHei-32"/>
       <use xlink:href="#SimHei-30" x="50"/>
       <use xlink:href="#SimHei-30" x="100"/>
      </g>
     </g>
    </g>
   </g>
   <g id="patch_9">
    <path d="M 108 169.2 
L 108 43.2 
" style="fill: none; stroke: #000000; stroke-width: 0.8; stroke-linejoin: miter; stroke-linecap: square"/>
   </g>
   <g id="patch_10">
    <path d="M 412.363636 169.2 
L 412.363636 43.2 
" style="fill: none; stroke: #000000; stroke-width: 0.8; stroke-linejoin: miter; stroke-linecap: square"/>
   </g>
   <g id="patch_11">
    <path d="M 108 169.2 
L 412.363636 169.2 
" style="fill: none; stroke: #000000; stroke-width: 0.8; stroke-linejoin: miter; stroke-linecap: square"/>
   </g>
   <g id="patch_12">
    <path d="M 108 43.2 
L 412.363636 43.2 
" style="fill: none; stroke: #000000; stroke-width: 0.8; stroke-linejoin: miter; stroke-linecap: square"/>
   </g>
  </g>
  <g id="axes_2">
   <g id="patch_13">
    <path d="M 473.236364 169.2 
L 777.6 169.2 
L 777.6 43.2 
L 473.236364 43.2 
z
" style="fill: #ffffff"/>
   </g>
   <g id="patch_14">
    <path d="M 487.071074 169.2 
L 525.235794 169.2 
L 525.235794 96.7 
L 487.071074 96.7 
z
" clip-path="url(#p0f12845b9a)" style="fill: #0000ff"/>
   </g>
   <g id="patch_15">
    <path d="M 534.776973 169.2 
L 572.941693 169.2 
L 572.941693 142.325 
L 534.776973 142.325 
z
" clip-path="url(#p0f12845b9a)" style="fill: #0000ff"/>
   </g>
   <g id="patch_16">
    <path d="M 582.482873 169.2 
L 620.647592 169.2 
L 620.647592 49.2 
L 582.482873 49.2 
z
" clip-path="url(#p0f12845b9a)" style="fill: #0000ff"/>
   </g>
   <g id="patch_17">
    <path d="M 630.188772 169.2 
L 668.353491 169.2 
L 668.353491 97.95 
L 630.188772 97.95 
z
" clip-path="url(#p0f12845b9a)" style="fill: #0000ff"/>
   </g>
   <g id="patch_18">
    <path d="M 677.894671 169.2 
L 716.05939 169.2 
L 716.05939 135.45 
L 677.894671 135.45 
z
" clip-path="url(#p0f12845b9a)" style="fill: #0000ff"/>
   </g>
   <g id="patch_19">
    <path d="M 725.60057 169.2 
L 763.765289 169.2 
L 763.765289 153.575 
L 725.60057 153.575 
z
" clip-path="url(#p0f12845b9a)" style="fill: #0000ff"/>
   </g>
   <g id="matplotlib.axis_3">
    <g id="xtick_7">
     <g id="line2d_12">
      <g>
       <use xlink:href="#m564993c781" x="506.153434" y="169.2" style="stroke: #000000; stroke-width: 0.8"/>
      </g>
     </g>
     <g id="text_12">
      <!-- 28 -->
      <g transform="translate(501.153434 183.075) scale(0.1 -0.1)">
       <use xlink:href="#SimHei-32"/>
       <use xlink:href="#SimHei-38" x="50"/>
      </g>
     </g>
    </g>
    <g id="xtick_8">
     <g id="line2d_13">
      <g>
       <use xlink:href="#m564993c781" x="553.859333" y="169.2" style="stroke: #000000; stroke-width: 0.8"/>
      </g>
     </g>
     <g id="text_13">
      <!-- 38 -->
      <g transform="translate(548.859333 183.075) scale(0.1 -0.1)">
       <use xlink:href="#SimHei-33"/>
       <use xlink:href="#SimHei-38" x="50"/>
      </g>
     </g>
    </g>
    <g id="xtick_9">
     <g id="line2d_14">
      <g>
       <use xlink:href="#m564993c781" x="601.565232" y="169.2" style="stroke: #000000; stroke-width: 0.8"/>
      </g>
     </g>
     <g id="text_14">
      <!-- 50008168 -->
      <g transform="translate(581.565232 183.075) scale(0.1 -0.1)">
       <use xlink:href="#SimHei-35"/>
       <use xlink:href="#SimHei-30" x="50"/>
       <use xlink:href="#SimHei-30" x="100"/>
       <use xlink:href="#SimHei-30" x="150"/>
       <use xlink:href="#SimHei-38" x="200"/>
       <use xlink:href="#SimHei-31" x="250"/>
       <use xlink:href="#SimHei-36" x="300"/>
       <use xlink:href="#SimHei-38" x="350"/>
      </g>
     </g>
    </g>
    <g id="xtick_10">
     <g id="line2d_15">
      <g>
       <use xlink:href="#m564993c781" x="649.271131" y="169.2" style="stroke: #000000; stroke-width: 0.8"/>
      </g>
     </g>
     <g id="text_15">
      <!-- 50014815 -->
      <g transform="translate(629.271131 183.075) scale(0.1 -0.1)">
       <use xlink:href="#SimHei-35"/>
       <use xlink:href="#SimHei-30" x="50"/>
       <use xlink:href="#SimHei-30" x="100"/>
       <use xlink:href="#SimHei-31" x="150"/>
       <use xlink:href="#SimHei-34" x="200"/>
       <use xlink:href="#SimHei-38" x="250"/>
       <use xlink:href="#SimHei-31" x="300"/>
       <use xlink:href="#SimHei-35" x="350"/>
      </g>
     </g>
    </g>
    <g id="xtick_11">
     <g id="line2d_16">
      <g>
       <use xlink:href="#m564993c781" x="696.97703" y="169.2" style="stroke: #000000; stroke-width: 0.8"/>
      </g>
     </g>
     <g id="text_16">
      <!-- 50022520 -->
      <g transform="translate(676.97703 183.075) scale(0.1 -0.1)">
       <use xlink:href="#SimHei-35"/>
       <use xlink:href="#SimHei-30" x="50"/>
       <use xlink:href="#SimHei-30" x="100"/>
       <use xlink:href="#SimHei-32" x="150"/>
       <use xlink:href="#SimHei-32" x="200"/>
       <use xlink:href="#SimHei-35" x="250"/>
       <use xlink:href="#SimHei-32" x="300"/>
       <use xlink:href="#SimHei-30" x="350"/>
      </g>
     </g>
    </g>
    <g id="xtick_12">
     <g id="line2d_17">
      <g>
       <use xlink:href="#m564993c781" x="744.68293" y="169.2" style="stroke: #000000; stroke-width: 0.8"/>
      </g>
     </g>
     <g id="text_17">
      <!-- 122650008 -->
      <g transform="translate(722.18293 183.075) scale(0.1 -0.1)">
       <use xlink:href="#SimHei-31"/>
       <use xlink:href="#SimHei-32" x="50"/>
       <use xlink:href="#SimHei-32" x="100"/>
       <use xlink:href="#SimHei-36" x="150"/>
       <use xlink:href="#SimHei-35" x="200"/>
       <use xlink:href="#SimHei-30" x="250"/>
       <use xlink:href="#SimHei-30" x="300"/>
       <use xlink:href="#SimHei-30" x="350"/>
       <use xlink:href="#SimHei-38" x="400"/>
      </g>
     </g>
    </g>
   </g>
   <g id="matplotlib.axis_4">
    <g id="ytick_6">
     <g id="line2d_18">
      <g>
       <use xlink:href="#mbee826a61e" x="473.236364" y="169.2" style="stroke: #000000; stroke-width: 0.8"/>
      </g>
     </g>
     <g id="text_18">
      <!-- 0 -->
      <g transform="translate(461.236364 172.6375) scale(0.1 -0.1)">
       <use xlink:href="#SimHei-30"/>
      </g>
     </g>
    </g>
    <g id="ytick_7">
     <g id="line2d_19">
      <g>
       <use xlink:href="#mbee826a61e" x="473.236364" y="137.95" style="stroke: #000000; stroke-width: 0.8"/>
      </g>
     </g>
     <g id="text_19">
      <!-- 50 -->
      <g transform="translate(456.236364 141.3875) scale(0.1 -0.1)">
       <use xlink:href="#SimHei-35"/>
       <use xlink:href="#SimHei-30" x="50"/>
      </g>
     </g>
    </g>
    <g id="ytick_8">
     <g id="line2d_20">
      <g>
       <use xlink:href="#mbee826a61e" x="473.236364" y="106.7" style="stroke: #000000; stroke-width: 0.8"/>
      </g>
     </g>
     <g id="text_20">
      <!-- 100 -->
      <g transform="translate(451.236364 110.1375) scale(0.1 -0.1)">
       <use xlink:href="#SimHei-31"/>
       <use xlink:href="#SimHei-30" x="50"/>
       <use xlink:href="#SimHei-30" x="100"/>
      </g>
     </g>
    </g>
    <g id="ytick_9">
     <g id="line2d_21">
      <g>
       <use xlink:href="#mbee826a61e" x="473.236364" y="75.45" style="stroke: #000000; stroke-width: 0.8"/>
      </g>
     </g>
     <g id="text_21">
      <!-- 150 -->
      <g transform="translate(451.236364 78.8875) scale(0.1 -0.1)">
       <use xlink:href="#SimHei-31"/>
       <use xlink:href="#SimHei-35" x="50"/>
       <use xlink:href="#SimHei-30" x="100"/>
      </g>
     </g>
    </g>
    <g id="ytick_10">
     <g id="line2d_22">
      <g>
       <use xlink:href="#mbee826a61e" x="473.236364" y="44.2" style="stroke: #000000; stroke-width: 0.8"/>
      </g>
     </g>
     <g id="text_22">
      <!-- 200 -->
      <g transform="translate(451.236364 47.6375) scale(0.1 -0.1)">
       <use xlink:href="#SimHei-32"/>
       <use xlink:href="#SimHei-30" x="50"/>
       <use xlink:href="#SimHei-30" x="100"/>
      </g>
     </g>
    </g>
   </g>
   <g id="patch_20">
    <path d="M 473.236364 169.2 
L 473.236364 43.2 
" style="fill: none; stroke: #000000; stroke-width: 0.8; stroke-linejoin: miter; stroke-linecap: square"/>
   </g>
   <g id="patch_21">
    <path d="M 777.6 169.2 
L 777.6 43.2 
" style="fill: none; stroke: #000000; stroke-width: 0.8; stroke-linejoin: miter; stroke-linecap: square"/>
   </g>
   <g id="patch_22">
    <path d="M 473.236364 169.2 
L 777.6 169.2 
" style="fill: none; stroke: #000000; stroke-width: 0.8; stroke-linejoin: miter; stroke-linecap: square"/>
   </g>
   <g id="patch_23">
    <path d="M 473.236364 43.2 
L 777.6 43.2 
" style="fill: none; stroke: #000000; stroke-width: 0.8; stroke-linejoin: miter; stroke-linecap: square"/>
   </g>
  </g>
  <g id="axes_3">
   <g id="patch_24">
    <path d="M 108 320.4 
L 412.363636 320.4 
L 412.363636 194.4 
L 108 194.4 
z
" style="fill: #ffffff"/>
   </g>
   <g id="patch_25">
    <path d="M 121.834711 320.4 
L 159.99943 320.4 
L 159.99943 275.955556 
L 121.834711 275.955556 
z
" clip-path="url(#pe8a4914bd8)" style="fill: #008000"/>
   </g>
   <g id="patch_26">
    <path d="M 169.54061 320.4 
L 207.705329 320.4 
L 207.705329 315.955556 
L 169.54061 315.955556 
z
" clip-path="url(#pe8a4914bd8)" style="fill: #008000"/>
   </g>
   <g id="patch_27">
    <path d="M 217.246509 320.4 
L 255.411228 320.4 
L 255.411228 302.622222 
L 217.246509 302.622222 
z
" clip-path="url(#pe8a4914bd8)" style="fill: #008000"/>
   </g>
   <g id="patch_28">
    <path d="M 264.952408 320.4 
L 303.117127 320.4 
L 303.117127 200.4 
L 264.952408 200.4 
z
" clip-path="url(#pe8a4914bd8)" style="fill: #008000"/>
   </g>
   <g id="patch_29">
    <path d="M 0 0 
z
" clip-path="url(#pe8a4914bd8)" style="fill: #008000"/>
   </g>
   <g id="patch_30">
    <path d="M 360.364206 320.4 
L 398.528926 320.4 
L 398.528926 315.955556 
L 360.364206 315.955556 
z
" clip-path="url(#pe8a4914bd8)" style="fill: #008000"/>
   </g>
   <g id="matplotlib.axis_5">
    <g id="xtick_13">
     <g id="line2d_23">
      <g>
       <use xlink:href="#m564993c781" x="140.91707" y="320.4" style="stroke: #000000; stroke-width: 0.8"/>
      </g>
     </g>
     <g id="text_23">
      <!-- 28 -->
      <g transform="translate(135.91707 334.275) scale(0.1 -0.1)">
       <use xlink:href="#SimHei-32"/>
       <use xlink:href="#SimHei-38" x="50"/>
      </g>
     </g>
    </g>
    <g id="xtick_14">
     <g id="line2d_24">
      <g>
       <use xlink:href="#m564993c781" x="188.62297" y="320.4" style="stroke: #000000; stroke-width: 0.8"/>
      </g>
     </g>
     <g id="text_24">
      <!-- 38 -->
      <g transform="translate(183.62297 334.275) scale(0.1 -0.1)">
       <use xlink:href="#SimHei-33"/>
       <use xlink:href="#SimHei-38" x="50"/>
      </g>
     </g>
    </g>
    <g id="xtick_15">
     <g id="line2d_25">
      <g>
       <use xlink:href="#m564993c781" x="236.328869" y="320.4" style="stroke: #000000; stroke-width: 0.8"/>
      </g>
     </g>
     <g id="text_25">
      <!-- 50008168 -->
      <g transform="translate(216.328869 334.275) scale(0.1 -0.1)">
       <use xlink:href="#SimHei-35"/>
       <use xlink:href="#SimHei-30" x="50"/>
       <use xlink:href="#SimHei-30" x="100"/>
       <use xlink:href="#SimHei-30" x="150"/>
       <use xlink:href="#SimHei-38" x="200"/>
       <use xlink:href="#SimHei-31" x="250"/>
       <use xlink:href="#SimHei-36" x="300"/>
       <use xlink:href="#SimHei-38" x="350"/>
      </g>
     </g>
    </g>
    <g id="xtick_16">
     <g id="line2d_26">
      <g>
       <use xlink:href="#m564993c781" x="284.034768" y="320.4" style="stroke: #000000; stroke-width: 0.8"/>
      </g>
     </g>
     <g id="text_26">
      <!-- 50014815 -->
      <g transform="translate(264.034768 334.275) scale(0.1 -0.1)">
       <use xlink:href="#SimHei-35"/>
       <use xlink:href="#SimHei-30" x="50"/>
       <use xlink:href="#SimHei-30" x="100"/>
       <use xlink:href="#SimHei-31" x="150"/>
       <use xlink:href="#SimHei-34" x="200"/>
       <use xlink:href="#SimHei-38" x="250"/>
       <use xlink:href="#SimHei-31" x="300"/>
       <use xlink:href="#SimHei-35" x="350"/>
      </g>
     </g>
    </g>
    <g id="xtick_17">
     <g id="line2d_27">
      <g>
       <use xlink:href="#m564993c781" x="331.740667" y="320.4" style="stroke: #000000; stroke-width: 0.8"/>
      </g>
     </g>
     <g id="text_27">
      <!-- 50022520 -->
      <g transform="translate(311.740667 334.275) scale(0.1 -0.1)">
       <use xlink:href="#SimHei-35"/>
       <use xlink:href="#SimHei-30" x="50"/>
       <use xlink:href="#SimHei-30" x="100"/>
       <use xlink:href="#SimHei-32" x="150"/>
       <use xlink:href="#SimHei-32" x="200"/>
       <use xlink:href="#SimHei-35" x="250"/>
       <use xlink:href="#SimHei-32" x="300"/>
       <use xlink:href="#SimHei-30" x="350"/>
      </g>
     </g>
    </g>
    <g id="xtick_18">
     <g id="line2d_28">
      <g>
       <use xlink:href="#m564993c781" x="379.446566" y="320.4" style="stroke: #000000; stroke-width: 0.8"/>
      </g>
     </g>
     <g id="text_28">
      <!-- 122650008 -->
      <g transform="translate(356.946566 334.275) scale(0.1 -0.1)">
       <use xlink:href="#SimHei-31"/>
       <use xlink:href="#SimHei-32" x="50"/>
       <use xlink:href="#SimHei-32" x="100"/>
       <use xlink:href="#SimHei-36" x="150"/>
       <use xlink:href="#SimHei-35" x="200"/>
       <use xlink:href="#SimHei-30" x="250"/>
       <use xlink:href="#SimHei-30" x="300"/>
       <use xlink:href="#SimHei-30" x="350"/>
       <use xlink:href="#SimHei-38" x="400"/>
      </g>
     </g>
    </g>
    <g id="text_29">
     <!-- 商品种类 -->
     <g transform="translate(240.181818 347.610937) scale(0.1 -0.1)">
      <defs>
       <path id="SimHei-5546" d="M 3150 5225 
Q 3475 4725 3550 4525 
L 4975 4525 
Q 5475 4525 5975 4550 
L 5975 4100 
Q 5475 4125 4975 4125 
L 2100 4125 
Q 2575 3625 2675 3475 
Q 2500 3400 2300 3250 
L 3650 3250 
Q 3800 3650 3950 4100 
Q 4200 4000 4525 3925 
Q 4350 3700 4125 3250 
L 5525 3250 
Q 5500 2950 5500 2425 
L 5500 -50 
Q 5500 -350 5225 -475 
Q 4950 -600 4475 -675 
Q 4450 -375 4275 -125 
Q 4775 -150 4900 -75 
Q 5025 0 5025 175 
L 5025 2900 
L 1375 2900 
L 1375 -600 
L 875 -600 
Q 900 50 900 325 
L 900 2475 
Q 900 2725 875 3250 
L 2250 3250 
Q 2075 3550 1675 3875 
Q 1875 3975 2050 4125 
L 1475 4125 
Q 900 4125 475 4100 
L 475 4550 
Q 900 4525 1450 4525 
L 3000 4525 
Q 2925 4775 2675 5050 
Q 2925 5125 3150 5225 
z
M 2600 2650 
Q 2850 2475 3075 2350 
Q 2825 2225 2350 1675 
L 4250 1675 
Q 4225 1350 4225 975 
Q 4225 600 4250 225 
L 2300 225 
Q 2325 600 2325 950 
Q 2325 1325 2300 1625 
Q 2125 1475 1950 1350 
Q 1825 1525 1575 1625 
Q 2350 2225 2600 2650 
z
M 3750 600 
L 3750 1300 
L 2775 1300 
L 2775 600 
L 3750 600 
z
M 3775 2675 
Q 4475 2225 4900 1850 
Q 4675 1725 4525 1525 
Q 4275 1825 3475 2350 
Q 3650 2475 3775 2675 
z
" transform="scale(0.015625)"/>
       <path id="SimHei-54c1" d="M 4900 4875 
Q 4875 4425 4875 3850 
Q 4875 3300 4900 2875 
L 1475 2875 
Q 1525 3300 1525 3875 
Q 1525 4450 1475 4875 
L 4900 4875 
z
M 5850 2300 
Q 5825 1850 5825 925 
Q 5825 25 5850 -350 
L 5375 -350 
L 5375 0 
L 3950 0 
L 3950 -425 
L 3475 -425 
Q 3500 0 3500 925 
Q 3500 1850 3475 2300 
L 5850 2300 
z
M 2400 -400 
L 2400 0 
L 1050 0 
L 1050 -425 
L 575 -425 
Q 600 0 600 925 
Q 600 1875 575 2300 
L 2875 2300 
Q 2825 1875 2825 1100 
Q 2825 350 2875 -400 
L 2400 -400 
z
M 4425 3300 
L 4425 4450 
L 1975 4450 
L 1975 3300 
L 4425 3300 
z
M 5375 450 
L 5375 1850 
L 3950 1850 
L 3950 450 
L 5375 450 
z
M 2400 450 
L 2400 1850 
L 1050 1850 
L 1050 450 
L 2400 450 
z
" transform="scale(0.015625)"/>
       <path id="SimHei-79cd" d="M 4225 4000 
Q 4225 4975 4200 5275 
L 4725 5275 
Q 4700 5000 4700 4000 
L 6000 4000 
Q 5975 3725 5975 3250 
L 5975 1550 
Q 5975 1275 6000 925 
L 5500 925 
L 5500 1425 
L 4700 1425 
L 4700 375 
Q 4700 -275 4725 -700 
L 4200 -700 
Q 4225 -275 4225 375 
L 4225 1425 
L 3425 1425 
L 3425 825 
L 2925 825 
Q 2950 1125 2950 1500 
L 2950 3200 
Q 2950 3725 2925 4000 
L 4225 4000 
z
M 350 3250 
Q 725 3225 1225 3225 
L 1425 3225 
L 1425 4325 
Q 1175 4250 575 4125 
Q 475 4350 350 4575 
Q 900 4600 1412 4737 
Q 1925 4875 2350 5100 
Q 2500 4900 2725 4625 
Q 2475 4600 2300 4550 
Q 2125 4500 1900 4450 
L 1900 3225 
Q 2225 3225 2700 3250 
L 2700 2800 
Q 2225 2825 1900 2825 
L 1900 225 
Q 1900 -125 1925 -650 
L 1400 -650 
Q 1425 -125 1425 225 
L 1425 1875 
Q 1225 1375 1062 1075 
Q 900 775 625 350 
Q 425 625 250 850 
Q 600 1225 887 1725 
Q 1175 2225 1300 2825 
L 925 2825 
Q 575 2825 350 2800 
L 350 3250 
z
M 4225 1825 
L 4225 3600 
L 3425 3600 
L 3425 1825 
L 4225 1825 
z
M 5500 1825 
L 5500 3600 
L 4700 3600 
L 4700 1825 
L 5500 1825 
z
M 2375 2475 
Q 2450 2300 2575 2125 
Q 2700 1950 2850 1625 
Q 2625 1525 2425 1375 
Q 2300 1650 2212 1837 
Q 2125 2025 1975 2225 
Q 2125 2325 2375 2475 
z
" transform="scale(0.015625)"/>
       <path id="SimHei-7c7b" d="M 2125 3875 
Q 1750 4375 1325 4725 
Q 1525 4875 1675 5050 
L 2525 4225 
Q 2400 4125 2200 3875 
L 3025 3875 
L 3025 4550 
Q 3025 4900 3000 5125 
L 3525 5125 
Q 3500 4850 3500 4550 
L 3500 3875 
L 4325 3875 
Q 4125 4050 4000 4150 
Q 4450 4575 4800 5175 
Q 5000 5000 5275 4825 
Q 5100 4675 4912 4475 
Q 4725 4275 4400 3875 
L 5025 3875 
Q 5425 3875 5900 3900 
L 5900 3450 
Q 5425 3475 5025 3475 
L 3500 3475 
L 3500 3050 
Q 3500 2650 3525 2175 
L 3175 2175 
Q 3475 2075 3675 2000 
Q 3575 1875 3525 1575 
L 5025 1575 
Q 5525 1575 6025 1600 
L 6025 1150 
Q 5550 1175 5050 1175 
L 3675 1175 
Q 4050 600 4712 275 
Q 5375 -50 6050 -175 
Q 5850 -350 5725 -675 
Q 4975 -450 4350 -37 
Q 3725 375 3300 950 
Q 3050 350 2425 -50 
Q 1800 -450 775 -700 
Q 650 -425 475 -225 
Q 1375 -100 2012 225 
Q 2650 550 2900 1175 
L 1625 1175 
Q 1025 1175 525 1150 
L 525 1600 
Q 950 1575 1600 1575 
L 3025 1575 
Q 3075 1825 3100 2175 
L 3000 2175 
Q 3025 2675 3025 3050 
L 3025 3325 
Q 2725 2900 2237 2550 
Q 1750 2200 925 1825 
Q 850 2025 625 2275 
Q 1175 2400 1725 2737 
Q 2275 3075 2600 3475 
L 1550 3475 
Q 1050 3475 600 3425 
L 600 3900 
Q 1075 3875 1550 3875 
L 2125 3875 
z
M 4100 3450 
Q 4850 3000 5800 2350 
Q 5575 2125 5425 1925 
Q 4700 2550 3825 3075 
Q 3975 3250 4100 3450 
z
" transform="scale(0.015625)"/>
      </defs>
      <use xlink:href="#SimHei-5546"/>
      <use xlink:href="#SimHei-54c1" x="100"/>
      <use xlink:href="#SimHei-79cd" x="200"/>
      <use xlink:href="#SimHei-7c7b" x="300"/>
     </g>
    </g>
   </g>
   <g id="matplotlib.axis_6">
    <g id="ytick_11">
     <g id="line2d_29">
      <g>
       <use xlink:href="#mbee826a61e" x="108" y="320.4" style="stroke: #000000; stroke-width: 0.8"/>
      </g>
     </g>
     <g id="text_30">
      <!-- 0 -->
      <g transform="translate(96 323.8375) scale(0.1 -0.1)">
       <use xlink:href="#SimHei-30"/>
      </g>
     </g>
    </g>
    <g id="ytick_12">
     <g id="line2d_30">
      <g>
       <use xlink:href="#mbee826a61e" x="108" y="298.177778" style="stroke: #000000; stroke-width: 0.8"/>
      </g>
     </g>
     <g id="text_31">
      <!-- 5 -->
      <g transform="translate(96 301.615278) scale(0.1 -0.1)">
       <use xlink:href="#SimHei-35"/>
      </g>
     </g>
    </g>
    <g id="ytick_13">
     <g id="line2d_31">
      <g>
       <use xlink:href="#mbee826a61e" x="108" y="275.955556" style="stroke: #000000; stroke-width: 0.8"/>
      </g>
     </g>
     <g id="text_32">
      <!-- 10 -->
      <g transform="translate(91 279.393056) scale(0.1 -0.1)">
       <use xlink:href="#SimHei-31"/>
       <use xlink:href="#SimHei-30" x="50"/>
      </g>
     </g>
    </g>
    <g id="ytick_14">
     <g id="line2d_32">
      <g>
       <use xlink:href="#mbee826a61e" x="108" y="253.733333" style="stroke: #000000; stroke-width: 0.8"/>
      </g>
     </g>
     <g id="text_33">
      <!-- 15 -->
      <g transform="translate(91 257.170833) scale(0.1 -0.1)">
       <use xlink:href="#SimHei-31"/>
       <use xlink:href="#SimHei-35" x="50"/>
      </g>
     </g>
    </g>
    <g id="ytick_15">
     <g id="line2d_33">
      <g>
       <use xlink:href="#mbee826a61e" x="108" y="231.511111" style="stroke: #000000; stroke-width: 0.8"/>
      </g>
     </g>
     <g id="text_34">
      <!-- 20 -->
      <g transform="translate(91 234.948611) scale(0.1 -0.1)">
       <use xlink:href="#SimHei-32"/>
       <use xlink:href="#SimHei-30" x="50"/>
      </g>
     </g>
    </g>
    <g id="ytick_16">
     <g id="line2d_34">
      <g>
       <use xlink:href="#mbee826a61e" x="108" y="209.288889" style="stroke: #000000; stroke-width: 0.8"/>
      </g>
     </g>
     <g id="text_35">
      <!-- 25 -->
      <g transform="translate(91 212.726389) scale(0.1 -0.1)">
       <use xlink:href="#SimHei-32"/>
       <use xlink:href="#SimHei-35" x="50"/>
      </g>
     </g>
    </g>
    <g id="text_36">
     <!-- 销售数量 -->
     <g transform="translate(85.75 277.4) rotate(-90) scale(0.1 -0.1)">
      <defs>
       <path id="SimHei-9500" d="M 4175 4325 
Q 4175 4700 4150 5125 
L 4650 5125 
Q 4625 4850 4625 4325 
L 4625 3225 
L 5825 3225 
Q 5800 2850 5800 2225 
L 5800 50 
Q 5800 -300 5562 -375 
Q 5325 -450 4925 -525 
Q 4875 -275 4700 -25 
Q 5275 0 5300 112 
Q 5325 225 5325 825 
L 3575 825 
L 3575 -450 
L 3100 -450 
Q 3125 75 3125 400 
L 3125 2175 
Q 3125 2800 3100 3225 
L 4175 3225 
L 4175 4325 
z
M 2350 2700 
Q 2025 2725 1700 2725 
L 1700 1975 
Q 2125 1975 2600 2000 
L 2600 1550 
Q 2125 1575 1700 1575 
L 1700 425 
Q 1925 575 2250 925 
Q 2325 700 2500 475 
Q 2250 300 1975 87 
Q 1700 -125 1400 -450 
Q 1275 -225 1075 -50 
Q 1225 100 1250 400 
L 1250 1575 
Q 950 1575 525 1550 
L 525 2000 
Q 950 1975 1250 1975 
L 1250 2725 
Q 950 2725 750 2700 
L 750 3150 
Q 1075 3125 1500 3125 
Q 1950 3125 2350 3150 
L 2350 2700 
z
M 625 3075 
Q 450 3275 225 3375 
Q 600 3750 875 4200 
Q 1150 4650 1325 5125 
Q 1675 4925 1875 4850 
Q 1550 4400 1450 4200 
Q 2075 4200 2500 4225 
L 2500 3750 
Q 2075 3775 1200 3775 
Q 825 3275 625 3075 
z
M 5325 2200 
L 5325 2850 
L 3575 2850 
L 3575 2200 
L 5325 2200 
z
M 5325 1200 
L 5325 1825 
L 3575 1825 
L 3575 1200 
L 5325 1200 
z
M 6050 4550 
Q 5850 4300 5450 3525 
Q 5225 3650 4975 3725 
Q 5250 4050 5525 4775 
Q 5725 4650 6050 4550 
z
M 3200 4775 
Q 3600 4150 3800 3800 
Q 3575 3700 3350 3550 
Q 3175 3950 2775 4525 
Q 3025 4625 3200 4775 
z
" transform="scale(0.015625)"/>
       <path id="SimHei-552e" d="M 2325 4925 
Q 2200 4825 1950 4425 
L 4925 4425 
Q 5350 4425 5775 4450 
L 5775 4050 
Q 5350 4075 4925 4075 
L 3775 4075 
L 3775 3650 
L 4650 3650 
Q 5075 3650 5450 3675 
L 5450 3225 
Q 5100 3275 4675 3275 
L 3775 3275 
L 3775 2850 
L 5475 2850 
L 5475 2425 
Q 5125 2450 4700 2450 
L 3775 2450 
L 3775 1975 
L 4825 1975 
Q 5325 1975 5900 2000 
L 5900 1550 
Q 5350 1600 4825 1600 
L 1800 1600 
L 1800 1375 
L 1275 1375 
Q 1300 1975 1300 3400 
Q 975 2850 700 2575 
Q 525 2800 350 2900 
Q 625 3225 837 3537 
Q 1050 3850 1300 4237 
Q 1550 4625 1725 5225 
Q 2050 5050 2325 4925 
z
M 5350 1175 
Q 5325 800 5325 275 
Q 5325 -250 5350 -650 
L 4825 -650 
L 4825 -375 
L 1725 -375 
L 1725 -675 
L 1200 -675 
Q 1250 -250 1250 275 
Q 1250 800 1200 1175 
L 5350 1175 
z
M 4825 25 
L 4825 775 
L 1725 775 
L 1725 25 
L 4825 25 
z
M 3275 1975 
L 3275 2450 
L 1800 2450 
L 1800 1975 
L 3275 1975 
z
M 3275 3650 
L 3275 4075 
L 1800 4075 
L 1800 3650 
L 3275 3650 
z
M 3275 2850 
L 3275 3275 
L 1800 3275 
L 1800 2850 
L 3275 2850 
z
M 3600 5275 
Q 3850 4875 3950 4675 
Q 3800 4625 3500 4500 
Q 3425 4700 3175 5075 
Q 3400 5150 3600 5275 
z
" transform="scale(0.015625)"/>
       <path id="SimHei-6570" d="M 4525 4925 
Q 4475 4800 4400 4587 
Q 4325 4375 4175 3825 
L 5325 3825 
Q 5575 3825 5925 3850 
L 5925 3400 
Q 5650 3425 5500 3425 
Q 5500 3025 5362 2162 
Q 5225 1300 4875 675 
Q 5125 375 5437 137 
Q 5750 -100 6025 -200 
Q 5725 -425 5625 -625 
Q 5325 -450 5075 -225 
Q 4825 0 4575 325 
Q 4300 25 3987 -187 
Q 3675 -400 3200 -650 
Q 3075 -425 2850 -300 
Q 3225 -150 3650 125 
Q 4075 400 4300 675 
Q 4125 1025 3962 1425 
Q 3800 1825 3675 2475 
Q 3600 2275 3425 1950 
Q 3250 2050 3000 2150 
Q 3400 2850 3650 3675 
Q 3900 4500 3975 5100 
Q 4275 4975 4525 4925 
z
M 2100 2250 
Q 2000 2150 1875 1925 
L 3250 1925 
Q 3100 1300 2725 675 
Q 3125 525 3350 400 
Q 3225 225 3125 25 
Q 2900 175 2450 325 
Q 1950 -225 725 -650 
Q 600 -375 400 -275 
Q 1575 0 2000 475 
Q 1300 650 850 775 
Q 1000 1000 1250 1525 
Q 1000 1525 425 1500 
L 425 1950 
Q 900 1925 1400 1925 
Q 1500 2150 1550 2425 
Q 1825 2325 2100 2250 
z
M 1775 3950 
Q 1775 4550 1750 5100 
L 2250 5100 
Q 2225 4575 2225 3950 
Q 3075 3950 3425 3975 
L 3425 3525 
Q 3075 3550 2225 3550 
Q 2225 2825 2250 2425 
L 1750 2425 
Q 1775 2775 1775 3300 
Q 1650 3100 1300 2787 
Q 950 2475 650 2300 
Q 525 2525 275 2625 
Q 500 2700 875 2975 
Q 1250 3250 1450 3550 
Q 950 3550 500 3525 
L 500 3975 
Q 925 3950 1775 3950 
z
M 3975 3175 
Q 4200 1700 4600 1125 
Q 4850 1700 4937 2287 
Q 5025 2875 5050 3425 
L 4075 3425 
L 3975 3175 
z
M 1450 1000 
Q 1750 925 2275 800 
Q 2475 1050 2650 1525 
L 1725 1525 
Q 1600 1275 1450 1000 
z
M 3325 4825 
Q 3200 4625 3125 4450 
Q 3050 4275 2925 4025 
Q 2725 4125 2525 4175 
Q 2725 4500 2900 5000 
Q 3150 4875 3325 4825 
z
M 2575 3375 
Q 2900 3050 3200 2725 
Q 3050 2600 2875 2425 
Q 2525 2850 2300 3100 
Q 2450 3225 2575 3375 
z
M 925 5000 
Q 1275 4650 1500 4300 
L 1125 4075 
Q 950 4425 600 4725 
Q 825 4875 925 5000 
z
" transform="scale(0.015625)"/>
       <path id="SimHei-91cf" d="M 5250 2500 
Q 5225 2200 5225 1700 
Q 5225 1225 5250 950 
L 3425 950 
L 3425 625 
L 4575 625 
Q 5000 625 5375 650 
L 5375 275 
Q 5025 300 4575 300 
L 3425 300 
L 3425 -75 
L 5125 -75 
Q 5525 -75 5925 -50 
L 5925 -425 
Q 5525 -400 5125 -400 
L 1275 -400 
Q 900 -400 475 -425 
L 475 -50 
Q 925 -50 1275 -75 
L 2975 -75 
L 2975 300 
L 1725 300 
Q 1350 300 975 250 
L 975 650 
Q 1375 625 1725 625 
L 2975 625 
L 2975 950 
L 1150 950 
Q 1175 1375 1175 1775 
Q 1175 2175 1150 2500 
L 5250 2500 
z
M 5200 4950 
Q 5175 4575 5175 4250 
Q 5175 3925 5200 3400 
L 1200 3400 
Q 1225 3925 1225 4250 
Q 1225 4575 1200 4950 
L 5200 4950 
z
M 4900 3100 
Q 5500 3125 6000 3150 
L 6000 2750 
Q 5500 2775 4925 2775 
L 1650 2775 
Q 975 2775 325 2750 
L 325 3150 
Q 975 3125 1650 3100 
L 4900 3100 
z
M 4725 3700 
L 4725 4025 
L 1675 4025 
L 1675 3700 
L 4725 3700 
z
M 4725 4350 
L 4725 4650 
L 1675 4650 
L 1675 4350 
L 4725 4350 
z
M 4750 1875 
L 4750 2175 
L 3425 2175 
L 3425 1875 
L 4750 1875 
z
M 2975 1875 
L 2975 2175 
L 1650 2175 
L 1650 1875 
L 2975 1875 
z
M 2975 1275 
L 2975 1550 
L 1650 1550 
L 1650 1275 
L 2975 1275 
z
M 4750 1275 
L 4750 1550 
L 3425 1550 
L 3425 1275 
L 4750 1275 
z
" transform="scale(0.015625)"/>
      </defs>
      <use xlink:href="#SimHei-9500"/>
      <use xlink:href="#SimHei-552e" x="100"/>
      <use xlink:href="#SimHei-6570" x="200"/>
      <use xlink:href="#SimHei-91cf" x="300"/>
     </g>
    </g>
   </g>
   <g id="patch_31">
    <path d="M 108 320.4 
L 108 194.4 
" style="fill: none; stroke: #000000; stroke-width: 0.8; stroke-linejoin: miter; stroke-linecap: square"/>
   </g>
   <g id="patch_32">
    <path d="M 412.363636 320.4 
L 412.363636 194.4 
" style="fill: none; stroke: #000000; stroke-width: 0.8; stroke-linejoin: miter; stroke-linecap: square"/>
   </g>
   <g id="patch_33">
    <path d="M 108 320.4 
L 412.363636 320.4 
" style="fill: none; stroke: #000000; stroke-width: 0.8; stroke-linejoin: miter; stroke-linecap: square"/>
   </g>
   <g id="patch_34">
    <path d="M 108 194.4 
L 412.363636 194.4 
" style="fill: none; stroke: #000000; stroke-width: 0.8; stroke-linejoin: miter; stroke-linecap: square"/>
   </g>
  </g>
 </g>
 <defs>
  <clipPath id="p74ba825849">
   <rect x="108" y="43.2" width="304.363636" height="126"/>
  </clipPath>
  <clipPath id="p0f12845b9a">
   <rect x="473.236364" y="43.2" width="304.363636" height="126"/>
  </clipPath>
  <clipPath id="pe8a4914bd8">
   <rect x="108" y="194.4" width="304.363636" height="126"/>
  </clipPath>
 </defs>
</svg>
