<?xml version="1.0" encoding="utf-8" standalone="no"?>
<!DOCTYPE svg PUBLIC "-//W3C//DTD SVG 1.1//EN"
  "http://www.w3.org/Graphics/SVG/1.1/DTD/svg11.dtd">
<svg xmlns:xlink="http://www.w3.org/1999/xlink" width="360pt" height="360pt" viewBox="0 0 360 360" xmlns="http://www.w3.org/2000/svg" version="1.1">
 <metadata>
  <rdf:RDF xmlns:dc="http://purl.org/dc/elements/1.1/" xmlns:cc="http://creativecommons.org/ns#" xmlns:rdf="http://www.w3.org/1999/02/22-rdf-syntax-ns#">
   <cc:Work>
    <dc:type rdf:resource="http://purl.org/dc/dcmitype/StillImage"/>
    <dc:date>2023-08-01T18:12:59.878570</dc:date>
    <dc:format>image/svg+xml</dc:format>
    <dc:creator>
     <cc:Agent>
      <dc:title>Matplotlib v3.7.0, https://matplotlib.org/</dc:title>
     </cc:Agent>
    </dc:creator>
   </cc:Work>
  </rdf:RDF>
 </metadata>
 <defs>
  <style type="text/css">*{stroke-linejoin: round; stroke-linecap: butt}</style>
 </defs>
 <g id="figure_1">
  <g id="patch_1">
   <path d="M 0 360 
L 360 360 
L 360 0 
L 0 0 
z
" style="fill: #ffffff"/>
  </g>
  <g id="axes_1">
   <g id="patch_2">
    <path d="M 295.38 181.8 
C 295.38 165.766995 291.902494 149.923112 285.187929 135.363858 
C 278.473365 120.804603 268.680149 107.873455 256.485423 97.46452 
C 244.290697 87.055585 229.982155 79.414428 214.549142 75.069388 
C 199.116129 70.724348 182.922736 69.777931 167.088636 72.295576 
C 151.254536 74.813221 136.153281 80.735533 122.829029 89.653021 
C 109.504778 98.570508 98.271871 110.272793 89.906993 123.950735 
C 81.542116 137.628676 76.24261 152.95959 74.374904 168.883438 
C 72.507197 184.807286 74.115352 200.948398 79.088175 216.190718 
L 184.5 181.8 
z
" style="fill: #ff0000"/>
   </g>
   <g id="patch_3">
    <path d="M 79.088175 216.190718 
C 86.660902 239.402068 101.692264 259.474746 121.83444 273.273504 
C 141.976617 287.072263 166.123307 293.83921 190.502925 292.517385 
C 214.882543 291.19556 238.156049 281.857563 256.688242 265.96194 
C 275.220435 250.066317 287.993443 228.486129 293.012189 204.592088 
L 184.5 181.8 
z
" style="fill: #0000ff"/>
   </g>
   <g id="patch_4">
    <path d="M 293.012189 204.592088 
C 293.798814 200.847001 294.391029 197.063699 294.786459 193.257376 
C 295.181888 189.451052 295.38 185.626808 295.38 181.8 
L 184.5 181.8 
z
" style="fill: #008000"/>
   </g>
   <g id="matplotlib.axis_1"/>
   <g id="matplotlib.axis_2"/>
   <g id="text_1">
    <!-- 女 -->
    <g transform="translate(155.3475 64.645915) scale(0.1 -0.1)">
     <defs>
      <path id="SimHei-5973" d="M 5550 -550 
Q 4950 -75 3675 525 
Q 3350 150 2600 -187 
Q 1850 -525 975 -650 
Q 875 -400 625 -200 
Q 975 -200 1925 50 
Q 2800 325 3200 725 
Q 2600 1050 1325 1525 
Q 1750 2325 1975 3050 
L 1175 3050 
Q 950 3050 475 3025 
L 475 3500 
Q 950 3475 2100 3475 
Q 2275 3925 2400 4387 
Q 2525 4850 2575 5175 
Q 2925 5050 3250 4950 
Q 3150 4875 3050 4637 
Q 2950 4400 2625 3475 
L 5150 3475 
Q 5700 3475 5950 3500 
L 5950 3025 
Q 5700 3050 5175 3050 
L 4850 3050 
Q 4525 1775 3975 925 
Q 5175 350 5875 -50 
Q 5675 -275 5550 -550 
z
M 1975 1775 
Q 3000 1350 3550 1125 
Q 4100 2050 4275 3050 
L 2525 3050 
Q 2275 2425 1975 1775 
z
" transform="scale(0.015625)"/>
     </defs>
     <use xlink:href="#SimHei-5973"/>
    </g>
   </g>
   <g id="text_2">
    <!-- 55.02% -->
    <g transform="translate(159.053182 118.909846) scale(0.1 -0.1)">
     <defs>
      <path id="SimHei-35" d="M 550 1325 
Q 725 650 1150 575 
Q 1575 500 1837 662 
Q 2100 825 2212 1087 
Q 2325 1350 2312 1675 
Q 2300 2000 2137 2225 
Q 1975 2450 1725 2525 
Q 1475 2600 1162 2525 
Q 850 2450 650 2175 
L 225 2225 
Q 275 2375 700 4375 
L 2675 4375 
L 2675 3925 
L 1075 3925 
Q 950 3250 825 2850 
Q 1200 3025 1525 3012 
Q 1850 3000 2150 2862 
Q 2450 2725 2587 2487 
Q 2725 2250 2787 2012 
Q 2850 1775 2837 1500 
Q 2825 1225 2725 937 
Q 2625 650 2425 462 
Q 2225 275 1937 162 
Q 1650 50 1275 75 
Q 900 100 562 350 
Q 225 600 100 1200 
L 550 1325 
z
" transform="scale(0.015625)"/>
      <path id="SimHei-2e" d="M 1075 125 
L 500 125 
L 500 675 
L 1075 675 
L 1075 125 
z
" transform="scale(0.015625)"/>
      <path id="SimHei-30" d="M 225 2537 
Q 250 3200 412 3587 
Q 575 3975 875 4225 
Q 1175 4475 1612 4475 
Q 2050 4475 2375 4112 
Q 2700 3750 2800 3200 
Q 2900 2650 2862 1937 
Q 2825 1225 2612 775 
Q 2400 325 1975 150 
Q 1550 -25 1125 187 
Q 700 400 525 750 
Q 350 1100 275 1487 
Q 200 1875 225 2537 
z
M 750 2687 
Q 675 2000 800 1462 
Q 925 925 1212 700 
Q 1500 475 1800 612 
Q 2100 750 2237 1162 
Q 2375 1575 2375 2062 
Q 2375 2550 2337 2950 
Q 2300 3350 2112 3675 
Q 1925 4000 1612 4012 
Q 1300 4025 1062 3700 
Q 825 3375 750 2687 
z
" transform="scale(0.015625)"/>
      <path id="SimHei-32" d="M 300 250 
Q 325 625 650 925 
Q 975 1225 1475 1862 
Q 1975 2500 2125 2850 
Q 2275 3200 2237 3450 
Q 2200 3700 2000 3862 
Q 1800 4025 1537 4000 
Q 1275 3975 1037 3800 
Q 800 3625 675 3275 
L 200 3350 
Q 400 3925 712 4187 
Q 1025 4450 1450 4475 
Q 1700 4500 1900 4462 
Q 2100 4425 2312 4287 
Q 2525 4150 2662 3875 
Q 2800 3600 2762 3212 
Q 2725 2825 2375 2287 
Q 2025 1750 1025 600 
L 2825 600 
L 2825 150 
L 300 150 
L 300 250 
z
" transform="scale(0.015625)"/>
      <path id="SimHei-25" d="M 1400 3325 
Q 1400 2600 1187 2400 
Q 975 2200 775 2200 
Q 575 2200 362 2400 
Q 150 2600 150 3325 
Q 150 4050 362 4250 
Q 575 4450 775 4450 
Q 975 4450 1187 4250 
Q 1400 4050 1400 3325 
z
M 2625 4375 
L 700 75 
L 500 150 
L 2425 4450 
L 2625 4375 
z
M 2975 1200 
Q 2975 475 2762 275 
Q 2550 75 2350 75 
Q 2150 75 1937 275 
Q 1725 475 1725 1200 
Q 1725 1925 1937 2125 
Q 2150 2325 2350 2325 
Q 2550 2325 2762 2125 
Q 2975 1925 2975 1200 
z
M 1000 3325 
Q 1000 3775 950 3925 
Q 900 4075 775 4075 
Q 650 4075 600 3925 
Q 550 3775 550 3325 
Q 550 2875 600 2725 
Q 650 2575 775 2575 
Q 900 2575 950 2725 
Q 1000 2875 1000 3325 
z
M 2575 1200 
Q 2575 1650 2525 1800 
Q 2475 1950 2350 1950 
Q 2225 1950 2175 1800 
Q 2125 1650 2125 1200 
Q 2125 750 2175 600 
Q 2225 450 2350 450 
Q 2475 450 2525 600 
Q 2575 750 2575 1200 
z
" transform="scale(0.015625)"/>
     </defs>
     <use xlink:href="#SimHei-35"/>
     <use xlink:href="#SimHei-35" x="50"/>
     <use xlink:href="#SimHei-2e" x="100"/>
     <use xlink:href="#SimHei-30" x="150"/>
     <use xlink:href="#SimHei-32" x="200"/>
     <use xlink:href="#SimHei-25" x="250"/>
    </g>
   </g>
   <g id="text_3">
    <!-- 男 -->
    <g transform="translate(191.103218 306.753186) scale(0.1 -0.1)">
     <defs>
      <path id="SimHei-7537" d="M 5525 4950 
Q 5500 4550 5500 4075 
L 5500 3100 
Q 5500 2725 5525 2375 
L 900 2375 
Q 925 2725 925 3100 
L 925 4075 
Q 925 4550 900 4950 
L 5525 4950 
z
M 3325 2225 
Q 3250 1975 3225 1725 
L 5775 1725 
Q 5700 1250 5650 700 
Q 5600 150 5512 -150 
Q 5425 -450 5087 -550 
Q 4750 -650 4425 -700 
Q 4375 -475 4100 -175 
Q 4750 -150 4887 -75 
Q 5025 0 5075 312 
Q 5125 625 5175 1300 
L 3150 1300 
Q 3100 925 2962 612 
Q 2825 300 2575 75 
Q 2325 -150 1912 -312 
Q 1500 -475 750 -700 
Q 675 -450 350 -225 
Q 1150 -100 1575 62 
Q 2000 225 2262 487 
Q 2525 750 2625 1300 
L 1400 1300 
Q 875 1300 600 1275 
L 600 1750 
Q 875 1725 1400 1725 
L 2675 1725 
Q 2700 2000 2675 2275 
Q 2925 2250 3325 2225 
z
M 2950 2725 
L 2950 3475 
L 1450 3475 
L 1450 2725 
L 2950 2725 
z
M 4975 2725 
L 4975 3475 
L 3500 3475 
L 3500 2725 
L 4975 2725 
z
M 2950 3875 
L 2950 4550 
L 1450 4550 
L 1450 3875 
L 2950 3875 
z
M 4975 3875 
L 4975 4550 
L 3500 4550 
L 3500 3875 
L 4975 3875 
z
" transform="scale(0.015625)"/>
     </defs>
     <use xlink:href="#SimHei-7537"/>
    </g>
   </g>
   <g id="text_4">
    <!-- 41.69% -->
    <g transform="translate(173.101755 251.042931) scale(0.1 -0.1)">
     <defs>
      <path id="SimHei-34" d="M 2000 1100 
L 75 1100 
L 75 1525 
L 2100 4450 
L 2475 4450 
L 2475 1525 
L 3075 1525 
L 3075 1100 
L 2475 1100 
L 2475 150 
L 2000 150 
L 2000 1100 
z
M 2000 1525 
L 2000 3500 
L 600 1525 
L 2000 1525 
z
" transform="scale(0.015625)"/>
      <path id="SimHei-31" d="M 1400 3600 
Q 1075 3275 575 2975 
L 575 3450 
Q 1200 3875 1600 4450 
L 1900 4450 
L 1900 150 
L 1400 150 
L 1400 3600 
z
" transform="scale(0.015625)"/>
      <path id="SimHei-36" d="M 250 1612 
Q 275 1975 387 2225 
Q 500 2475 725 2850 
L 1750 4450 
L 2325 4450 
L 1275 2800 
Q 1950 2975 2350 2750 
Q 2750 2525 2887 2237 
Q 3025 1950 3037 1612 
Q 3050 1275 2937 950 
Q 2825 625 2537 362 
Q 2250 100 1737 75 
Q 1225 50 862 262 
Q 500 475 362 862 
Q 225 1250 250 1612 
z
M 1025 787 
Q 1250 550 1625 525 
Q 2000 500 2250 775 
Q 2500 1050 2500 1575 
Q 2500 2100 2187 2300 
Q 1875 2500 1487 2450 
Q 1100 2400 925 2075 
Q 750 1750 775 1387 
Q 800 1025 1025 787 
z
" transform="scale(0.015625)"/>
      <path id="SimHei-39" d="M 800 75 
Q 1350 1000 1700 1750 
Q 1075 1650 662 1912 
Q 250 2175 162 2625 
Q 75 3075 175 3437 
Q 275 3800 487 4037 
Q 700 4275 1000 4375 
Q 1300 4475 1537 4475 
Q 1775 4475 2025 4375 
Q 2275 4275 2475 4075 
Q 2675 3875 2750 3662 
Q 2825 3450 2825 3112 
Q 2825 2775 2575 2250 
Q 2325 1725 1350 75 
L 800 75 
z
M 662 2875 
Q 700 2550 937 2337 
Q 1175 2125 1450 2150 
Q 1725 2175 1887 2300 
Q 2050 2425 2200 2725 
Q 2300 3100 2250 3362 
Q 2200 3625 1987 3800 
Q 1775 3975 1525 3975 
Q 1375 4000 1137 3900 
Q 900 3800 762 3500 
Q 625 3200 662 2875 
z
" transform="scale(0.015625)"/>
     </defs>
     <use xlink:href="#SimHei-34"/>
     <use xlink:href="#SimHei-31" x="50"/>
     <use xlink:href="#SimHei-2e" x="100"/>
     <use xlink:href="#SimHei-36" x="150"/>
     <use xlink:href="#SimHei-39" x="200"/>
     <use xlink:href="#SimHei-25" x="250"/>
    </g>
   </g>
   <g id="text_5">
    <!-- 未知 -->
    <g transform="translate(305.815104 197.684363) scale(0.1 -0.1)">
     <defs>
      <path id="SimHei-672a" d="M 2875 4150 
Q 2875 4900 2850 5225 
L 3400 5225 
Q 3375 4925 3375 4150 
L 4475 4150 
Q 4950 4150 5375 4175 
L 5375 3725 
Q 4950 3750 4475 3750 
L 3375 3750 
L 3375 2750 
L 4850 2750 
Q 5400 2750 5875 2775 
L 5875 2325 
Q 5400 2350 4875 2350 
L 3675 2350 
Q 4125 1675 4662 1187 
Q 5200 700 6175 425 
Q 5850 275 5725 -100 
Q 5050 150 4462 650 
Q 3875 1150 3375 2050 
L 3375 300 
Q 3375 -175 3400 -575 
L 2825 -575 
Q 2875 -175 2875 300 
L 2875 2125 
Q 2275 1150 1700 650 
Q 1125 150 675 -150 
Q 575 75 225 300 
Q 650 450 1312 1000 
Q 1975 1550 2475 2350 
L 1225 2350 
Q 675 2350 375 2325 
L 375 2775 
Q 750 2750 1275 2750 
L 2875 2750 
L 2875 3750 
L 1825 3750 
Q 1225 3750 850 3725 
L 850 4175 
Q 1225 4150 1775 4150 
L 2875 4150 
z
" transform="scale(0.015625)"/>
      <path id="SimHei-77e5" d="M 5925 4350 
Q 5900 3850 5900 3450 
L 5900 850 
Q 5900 375 5925 -125 
L 5400 -125 
L 5400 550 
L 4075 550 
L 4075 -225 
L 3550 -225 
Q 3575 250 3575 775 
L 3575 3450 
Q 3575 3850 3550 4350 
L 5925 4350 
z
M 500 -275 
Q 825 0 1087 387 
Q 1350 775 1525 1187 
Q 1700 1600 1750 2000 
Q 825 2000 425 1975 
L 425 2450 
Q 800 2425 1825 2425 
Q 1900 2950 1900 3700 
L 1325 3700 
Q 1200 3350 950 2875 
Q 675 2950 450 3000 
Q 625 3250 800 3662 
Q 975 4075 1087 4462 
Q 1200 4850 1250 5150 
Q 1500 5075 1825 5025 
Q 1700 4850 1625 4625 
Q 1550 4400 1450 4125 
Q 2875 4125 3225 4150 
L 3225 3700 
L 2375 3700 
Q 2375 3150 2325 2425 
Q 2925 2425 3375 2450 
L 3375 1975 
Q 2925 2000 2250 2000 
Q 2225 1725 2150 1475 
Q 2375 1300 2650 1087 
Q 2925 875 3350 375 
Q 3175 300 2950 25 
Q 2725 400 2487 637 
Q 2250 875 2000 1075 
Q 1850 675 1537 225 
Q 1225 -225 900 -575 
Q 775 -425 500 -275 
z
M 5400 950 
L 5400 3950 
L 4075 3950 
L 4075 950 
L 5400 950 
z
" transform="scale(0.015625)"/>
     </defs>
     <use xlink:href="#SimHei-672a"/>
     <use xlink:href="#SimHei-77e5" x="100"/>
    </g>
   </g>
   <g id="text_6">
    <!-- 3.30% -->
    <g transform="translate(238.171875 191.486925) scale(0.1 -0.1)">
     <defs>
      <path id="SimHei-33" d="M 250 1225 
L 700 1300 
Q 800 975 1025 762 
Q 1250 550 1587 562 
Q 1925 575 2125 837 
Q 2325 1100 2300 1437 
Q 2275 1775 2037 1962 
Q 1800 2150 1275 2225 
L 1275 2550 
Q 1800 2600 2037 2825 
Q 2275 3050 2250 3412 
Q 2225 3775 1925 3937 
Q 1625 4100 1287 3975 
Q 950 3850 750 3275 
L 300 3350 
Q 450 3800 712 4100 
Q 975 4400 1425 4450 
Q 1875 4500 2212 4337 
Q 2550 4175 2687 3837 
Q 2825 3500 2725 3100 
Q 2625 2700 2150 2400 
Q 2500 2250 2687 1950 
Q 2875 1650 2812 1162 
Q 2750 675 2375 375 
Q 2000 75 1525 87 
Q 1050 100 700 387 
Q 350 675 250 1225 
z
" transform="scale(0.015625)"/>
     </defs>
     <use xlink:href="#SimHei-33"/>
     <use xlink:href="#SimHei-2e" x="50"/>
     <use xlink:href="#SimHei-33" x="100"/>
     <use xlink:href="#SimHei-30" x="150"/>
     <use xlink:href="#SimHei-25" x="200"/>
    </g>
   </g>
   <g id="text_7">
    <!-- 性别与购买数量的销售关系 -->
    <g transform="translate(112.5 37.2) scale(0.12 -0.12)">
     <defs>
      <path id="SimHei-6027" d="M 3450 4525 
Q 3325 4075 3275 3750 
L 4050 3750 
L 4050 4275 
Q 4050 4700 4025 5100 
L 4550 5100 
Q 4525 4700 4525 4275 
L 4525 3750 
L 5025 3750 
Q 5350 3750 5800 3775 
L 5800 3300 
Q 5350 3325 5025 3325 
L 4525 3325 
L 4525 2000 
L 4975 2000 
Q 5350 2000 5725 2025 
L 5725 1550 
Q 5350 1575 4975 1575 
L 4525 1575 
L 4525 25 
L 5200 25 
Q 5625 25 6025 50 
L 6025 -400 
Q 5625 -375 5200 -375 
L 3275 -375 
Q 2825 -375 2400 -400 
L 2400 50 
Q 2825 25 3250 25 
L 4050 25 
L 4050 1575 
L 3625 1575 
Q 3300 1575 2875 1550 
L 2875 2025 
Q 3200 2000 3625 2000 
L 4050 2000 
L 4050 3325 
L 3175 3325 
Q 3100 2950 2775 2225 
Q 2500 2375 2325 2400 
Q 2675 3125 2775 3650 
Q 2875 4175 2950 4650 
Q 3200 4575 3450 4525 
z
M 1700 5150 
Q 1675 4650 1675 4175 
L 1675 425 
Q 1675 -100 1700 -625 
L 1175 -625 
Q 1200 -100 1200 425 
L 1200 4175 
Q 1200 4700 1175 5150 
L 1700 5150 
z
M 975 3725 
Q 825 2675 700 2150 
Q 450 2200 250 2250 
Q 425 2900 525 3800 
Q 725 3775 975 3725 
z
M 2125 4025 
Q 2325 3625 2525 3000 
Q 2300 2925 2125 2825 
Q 1950 3375 1750 3850 
Q 1950 3950 2125 4025 
z
" transform="scale(0.015625)"/>
      <path id="SimHei-522b" d="M 3275 4950 
Q 3250 4600 3250 3925 
Q 3250 3250 3275 2975 
L 800 2975 
Q 825 3275 825 3975 
Q 825 4700 800 4950 
L 3275 4950 
z
M 1650 2125 
Q 1650 2400 1625 2925 
Q 1950 2875 2225 2850 
Q 2150 2625 2125 2125 
L 3600 2125 
Q 3575 1850 3575 1375 
L 3525 125 
Q 3500 -275 3200 -400 
Q 2900 -525 2475 -600 
Q 2375 -275 2250 -25 
Q 2725 -25 2900 25 
Q 3075 75 3075 325 
L 3125 1675 
L 2100 1675 
Q 2025 875 1737 400 
Q 1450 -75 650 -675 
Q 475 -400 250 -225 
Q 900 125 1237 575 
Q 1575 1025 1600 1675 
L 1125 1675 
Q 825 1675 450 1650 
L 450 2150 
Q 800 2125 1125 2125 
L 1650 2125 
z
M 5800 5125 
Q 5775 4875 5775 4375 
L 5775 175 
Q 5775 -350 5525 -450 
Q 5275 -550 4700 -650 
Q 4625 -350 4475 -75 
Q 5000 -75 5150 -12 
Q 5300 50 5300 325 
L 5300 4375 
Q 5300 4825 5275 5125 
L 5800 5125 
z
M 4600 4400 
Q 4575 4100 4575 3700 
L 4575 1600 
Q 4575 1125 4600 725 
L 4075 725 
Q 4100 1125 4100 1600 
L 4100 3700 
Q 4100 4100 4075 4400 
L 4600 4400 
z
M 2775 3425 
L 2775 4500 
L 1300 4500 
L 1300 3425 
L 2775 3425 
z
" transform="scale(0.015625)"/>
      <path id="SimHei-4e0e" d="M 5350 100 
Q 5275 -300 4925 -425 
Q 4575 -550 3900 -600 
Q 3875 -375 3650 -25 
Q 4375 -50 4575 0 
Q 4775 50 4837 225 
Q 4900 400 5100 2350 
L 1125 2350 
Q 1450 4350 1475 5200 
Q 1800 5150 2075 5125 
Q 1975 4825 1900 4275 
L 4900 4275 
Q 5400 4275 5800 4300 
L 5800 3825 
Q 5400 3850 4950 3850 
L 1850 3850 
L 1700 2750 
L 5675 2750 
Q 5625 2450 5575 2050 
L 5350 100 
z
M 3675 1350 
Q 4125 1350 4500 1375 
L 4500 875 
Q 4125 900 3850 900 
L 1450 900 
Q 1000 900 500 875 
L 500 1375 
Q 1000 1350 1450 1350 
L 3675 1350 
z
" transform="scale(0.015625)"/>
      <path id="SimHei-8d2d" d="M 5850 250 
Q 5800 -250 5525 -375 
Q 5250 -500 4675 -575 
Q 4625 -275 4450 -25 
Q 4950 -50 5150 25 
Q 5350 100 5375 325 
L 5425 3750 
L 3675 3750 
Q 3450 3250 3175 2800 
Q 3025 2925 2775 3025 
Q 3100 3475 3350 4137 
Q 3600 4800 3675 5200 
Q 3975 5075 4200 5000 
Q 4075 4800 3825 4175 
L 5925 4175 
Q 5900 3750 5900 3075 
L 5850 250 
z
M 2275 1200 
L 2275 4375 
L 975 4375 
L 975 1050 
L 500 1050 
Q 525 1625 525 2925 
Q 525 4225 500 4775 
L 2725 4775 
Q 2700 4225 2700 3000 
Q 2700 1800 2725 1200 
L 2275 1200 
z
M 200 -225 
Q 650 100 900 525 
Q 1150 950 1262 1450 
Q 1375 1950 1375 2575 
Q 1375 3200 1350 3875 
Q 1625 3825 1900 3825 
Q 1825 3425 1825 2825 
Q 1825 2250 1750 1650 
Q 1675 1050 1412 512 
Q 1150 -25 600 -575 
Q 375 -325 200 -225 
z
M 4725 2325 
Q 5000 1475 5175 900 
Q 4900 800 4700 725 
Q 4650 975 4600 1150 
Q 3600 1075 3200 875 
Q 3125 1125 2975 1400 
Q 3175 1500 3387 1937 
Q 3600 2375 3750 3175 
Q 4050 3025 4275 2975 
Q 4125 2700 3925 2237 
Q 3725 1775 3550 1450 
Q 4075 1500 4500 1525 
Q 4450 1750 4300 2200 
Q 4425 2225 4725 2325 
z
M 2525 -450 
Q 2275 -25 1650 600 
Q 1850 800 1975 950 
Q 2300 700 2925 -100 
Q 2725 -225 2525 -450 
z
" transform="scale(0.015625)"/>
      <path id="SimHei-4e70" d="M 3525 4125 
Q 3600 4100 4150 4025 
Q 4050 3675 4025 3462 
Q 4000 3250 3925 2687 
Q 3850 2125 3775 1750 
L 4925 1750 
Q 5425 1750 6000 1775 
L 6000 1325 
Q 5400 1350 5075 1350 
L 3700 1350 
Q 3175 75 950 -650 
Q 750 -325 550 -225 
Q 2475 175 3125 1350 
L 1275 1350 
Q 850 1350 475 1325 
L 475 1775 
Q 850 1750 1250 1750 
L 3300 1750 
Q 3450 2350 3487 2912 
Q 3525 3475 3525 4125 
z
M 5900 4750 
Q 5800 4475 5675 4125 
Q 5550 3775 5375 3325 
Q 4975 3425 4850 3450 
Q 5075 4050 5200 4375 
L 1775 4375 
Q 1075 4375 800 4350 
L 800 4775 
Q 1075 4750 1675 4750 
L 5900 4750 
z
M 3900 950 
Q 4350 725 4875 437 
Q 5400 150 5875 -175 
Q 5750 -300 5550 -625 
Q 4875 -100 3675 575 
Q 3825 775 3900 950 
z
M 1325 3100 
Q 2175 2575 2550 2300 
Q 2400 2200 2200 1925 
Q 1975 2125 1050 2725 
Q 1300 2950 1325 3100 
z
M 1875 4075 
Q 2700 3550 3025 3300 
Q 2975 3250 2700 2925 
Q 2250 3325 1625 3725 
Q 1825 3950 1875 4075 
z
" transform="scale(0.015625)"/>
      <path id="SimHei-6570" d="M 4525 4925 
Q 4475 4800 4400 4587 
Q 4325 4375 4175 3825 
L 5325 3825 
Q 5575 3825 5925 3850 
L 5925 3400 
Q 5650 3425 5500 3425 
Q 5500 3025 5362 2162 
Q 5225 1300 4875 675 
Q 5125 375 5437 137 
Q 5750 -100 6025 -200 
Q 5725 -425 5625 -625 
Q 5325 -450 5075 -225 
Q 4825 0 4575 325 
Q 4300 25 3987 -187 
Q 3675 -400 3200 -650 
Q 3075 -425 2850 -300 
Q 3225 -150 3650 125 
Q 4075 400 4300 675 
Q 4125 1025 3962 1425 
Q 3800 1825 3675 2475 
Q 3600 2275 3425 1950 
Q 3250 2050 3000 2150 
Q 3400 2850 3650 3675 
Q 3900 4500 3975 5100 
Q 4275 4975 4525 4925 
z
M 2100 2250 
Q 2000 2150 1875 1925 
L 3250 1925 
Q 3100 1300 2725 675 
Q 3125 525 3350 400 
Q 3225 225 3125 25 
Q 2900 175 2450 325 
Q 1950 -225 725 -650 
Q 600 -375 400 -275 
Q 1575 0 2000 475 
Q 1300 650 850 775 
Q 1000 1000 1250 1525 
Q 1000 1525 425 1500 
L 425 1950 
Q 900 1925 1400 1925 
Q 1500 2150 1550 2425 
Q 1825 2325 2100 2250 
z
M 1775 3950 
Q 1775 4550 1750 5100 
L 2250 5100 
Q 2225 4575 2225 3950 
Q 3075 3950 3425 3975 
L 3425 3525 
Q 3075 3550 2225 3550 
Q 2225 2825 2250 2425 
L 1750 2425 
Q 1775 2775 1775 3300 
Q 1650 3100 1300 2787 
Q 950 2475 650 2300 
Q 525 2525 275 2625 
Q 500 2700 875 2975 
Q 1250 3250 1450 3550 
Q 950 3550 500 3525 
L 500 3975 
Q 925 3950 1775 3950 
z
M 3975 3175 
Q 4200 1700 4600 1125 
Q 4850 1700 4937 2287 
Q 5025 2875 5050 3425 
L 4075 3425 
L 3975 3175 
z
M 1450 1000 
Q 1750 925 2275 800 
Q 2475 1050 2650 1525 
L 1725 1525 
Q 1600 1275 1450 1000 
z
M 3325 4825 
Q 3200 4625 3125 4450 
Q 3050 4275 2925 4025 
Q 2725 4125 2525 4175 
Q 2725 4500 2900 5000 
Q 3150 4875 3325 4825 
z
M 2575 3375 
Q 2900 3050 3200 2725 
Q 3050 2600 2875 2425 
Q 2525 2850 2300 3100 
Q 2450 3225 2575 3375 
z
M 925 5000 
Q 1275 4650 1500 4300 
L 1125 4075 
Q 950 4425 600 4725 
Q 825 4875 925 5000 
z
" transform="scale(0.015625)"/>
      <path id="SimHei-91cf" d="M 5250 2500 
Q 5225 2200 5225 1700 
Q 5225 1225 5250 950 
L 3425 950 
L 3425 625 
L 4575 625 
Q 5000 625 5375 650 
L 5375 275 
Q 5025 300 4575 300 
L 3425 300 
L 3425 -75 
L 5125 -75 
Q 5525 -75 5925 -50 
L 5925 -425 
Q 5525 -400 5125 -400 
L 1275 -400 
Q 900 -400 475 -425 
L 475 -50 
Q 925 -50 1275 -75 
L 2975 -75 
L 2975 300 
L 1725 300 
Q 1350 300 975 250 
L 975 650 
Q 1375 625 1725 625 
L 2975 625 
L 2975 950 
L 1150 950 
Q 1175 1375 1175 1775 
Q 1175 2175 1150 2500 
L 5250 2500 
z
M 5200 4950 
Q 5175 4575 5175 4250 
Q 5175 3925 5200 3400 
L 1200 3400 
Q 1225 3925 1225 4250 
Q 1225 4575 1200 4950 
L 5200 4950 
z
M 4900 3100 
Q 5500 3125 6000 3150 
L 6000 2750 
Q 5500 2775 4925 2775 
L 1650 2775 
Q 975 2775 325 2750 
L 325 3150 
Q 975 3125 1650 3100 
L 4900 3100 
z
M 4725 3700 
L 4725 4025 
L 1675 4025 
L 1675 3700 
L 4725 3700 
z
M 4725 4350 
L 4725 4650 
L 1675 4650 
L 1675 4350 
L 4725 4350 
z
M 4750 1875 
L 4750 2175 
L 3425 2175 
L 3425 1875 
L 4750 1875 
z
M 2975 1875 
L 2975 2175 
L 1650 2175 
L 1650 1875 
L 2975 1875 
z
M 2975 1275 
L 2975 1550 
L 1650 1550 
L 1650 1275 
L 2975 1275 
z
M 4750 1275 
L 4750 1550 
L 3425 1550 
L 3425 1275 
L 4750 1275 
z
" transform="scale(0.015625)"/>
      <path id="SimHei-7684" d="M 2100 4975 
Q 1975 4750 1750 3950 
L 2875 3950 
Q 2850 3525 2850 2875 
L 2850 675 
Q 2850 300 2875 -400 
L 2375 -400 
L 2375 100 
L 1100 100 
L 1100 -450 
L 600 -450 
Q 625 350 625 550 
L 625 2850 
Q 625 3525 600 3950 
L 1325 3950 
Q 1450 4525 1525 5150 
Q 1875 5025 2100 4975 
z
M 5825 3075 
Q 5800 1550 5700 175 
Q 5650 -275 5225 -425 
Q 4800 -575 4275 -625 
Q 4250 -350 4050 -50 
Q 4550 -75 4837 -25 
Q 5125 25 5200 200 
Q 5275 375 5312 1225 
Q 5350 2075 5375 3600 
L 3925 3600 
Q 3725 3125 3350 2475 
Q 3175 2650 2925 2750 
Q 3150 3050 3350 3475 
Q 3550 3900 3700 4400 
Q 3850 4900 3875 5175 
Q 4225 5025 4475 4950 
Q 4350 4750 4262 4512 
Q 4175 4275 4075 4050 
L 5850 4050 
Q 5825 3525 5825 3075 
z
M 2375 525 
L 2375 1850 
L 1100 1850 
L 1100 525 
L 2375 525 
z
M 2375 2275 
L 2375 3525 
L 1100 3525 
L 1100 2275 
L 2375 2275 
z
M 4350 2050 
Q 4500 1750 4700 1275 
Q 4525 1200 4225 1025 
Q 4050 1500 3900 1837 
Q 3750 2175 3600 2400 
Q 3775 2500 4050 2650 
L 4350 2050 
z
" transform="scale(0.015625)"/>
      <path id="SimHei-9500" d="M 4175 4325 
Q 4175 4700 4150 5125 
L 4650 5125 
Q 4625 4850 4625 4325 
L 4625 3225 
L 5825 3225 
Q 5800 2850 5800 2225 
L 5800 50 
Q 5800 -300 5562 -375 
Q 5325 -450 4925 -525 
Q 4875 -275 4700 -25 
Q 5275 0 5300 112 
Q 5325 225 5325 825 
L 3575 825 
L 3575 -450 
L 3100 -450 
Q 3125 75 3125 400 
L 3125 2175 
Q 3125 2800 3100 3225 
L 4175 3225 
L 4175 4325 
z
M 2350 2700 
Q 2025 2725 1700 2725 
L 1700 1975 
Q 2125 1975 2600 2000 
L 2600 1550 
Q 2125 1575 1700 1575 
L 1700 425 
Q 1925 575 2250 925 
Q 2325 700 2500 475 
Q 2250 300 1975 87 
Q 1700 -125 1400 -450 
Q 1275 -225 1075 -50 
Q 1225 100 1250 400 
L 1250 1575 
Q 950 1575 525 1550 
L 525 2000 
Q 950 1975 1250 1975 
L 1250 2725 
Q 950 2725 750 2700 
L 750 3150 
Q 1075 3125 1500 3125 
Q 1950 3125 2350 3150 
L 2350 2700 
z
M 625 3075 
Q 450 3275 225 3375 
Q 600 3750 875 4200 
Q 1150 4650 1325 5125 
Q 1675 4925 1875 4850 
Q 1550 4400 1450 4200 
Q 2075 4200 2500 4225 
L 2500 3750 
Q 2075 3775 1200 3775 
Q 825 3275 625 3075 
z
M 5325 2200 
L 5325 2850 
L 3575 2850 
L 3575 2200 
L 5325 2200 
z
M 5325 1200 
L 5325 1825 
L 3575 1825 
L 3575 1200 
L 5325 1200 
z
M 6050 4550 
Q 5850 4300 5450 3525 
Q 5225 3650 4975 3725 
Q 5250 4050 5525 4775 
Q 5725 4650 6050 4550 
z
M 3200 4775 
Q 3600 4150 3800 3800 
Q 3575 3700 3350 3550 
Q 3175 3950 2775 4525 
Q 3025 4625 3200 4775 
z
" transform="scale(0.015625)"/>
      <path id="SimHei-552e" d="M 2325 4925 
Q 2200 4825 1950 4425 
L 4925 4425 
Q 5350 4425 5775 4450 
L 5775 4050 
Q 5350 4075 4925 4075 
L 3775 4075 
L 3775 3650 
L 4650 3650 
Q 5075 3650 5450 3675 
L 5450 3225 
Q 5100 3275 4675 3275 
L 3775 3275 
L 3775 2850 
L 5475 2850 
L 5475 2425 
Q 5125 2450 4700 2450 
L 3775 2450 
L 3775 1975 
L 4825 1975 
Q 5325 1975 5900 2000 
L 5900 1550 
Q 5350 1600 4825 1600 
L 1800 1600 
L 1800 1375 
L 1275 1375 
Q 1300 1975 1300 3400 
Q 975 2850 700 2575 
Q 525 2800 350 2900 
Q 625 3225 837 3537 
Q 1050 3850 1300 4237 
Q 1550 4625 1725 5225 
Q 2050 5050 2325 4925 
z
M 5350 1175 
Q 5325 800 5325 275 
Q 5325 -250 5350 -650 
L 4825 -650 
L 4825 -375 
L 1725 -375 
L 1725 -675 
L 1200 -675 
Q 1250 -250 1250 275 
Q 1250 800 1200 1175 
L 5350 1175 
z
M 4825 25 
L 4825 775 
L 1725 775 
L 1725 25 
L 4825 25 
z
M 3275 1975 
L 3275 2450 
L 1800 2450 
L 1800 1975 
L 3275 1975 
z
M 3275 3650 
L 3275 4075 
L 1800 4075 
L 1800 3650 
L 3275 3650 
z
M 3275 2850 
L 3275 3275 
L 1800 3275 
L 1800 2850 
L 3275 2850 
z
M 3600 5275 
Q 3850 4875 3950 4675 
Q 3800 4625 3500 4500 
Q 3425 4700 3175 5075 
Q 3400 5150 3600 5275 
z
" transform="scale(0.015625)"/>
      <path id="SimHei-5173" d="M 4675 4850 
Q 4525 4675 4362 4375 
Q 4200 4075 4075 3825 
L 4625 3825 
Q 5150 3825 5550 3850 
L 5550 3375 
Q 5225 3400 4700 3400 
L 3400 3400 
L 3400 2150 
L 4975 2150 
Q 5475 2150 5875 2175 
L 5875 1700 
Q 5475 1725 5025 1725 
L 3500 1725 
Q 4250 450 6000 75 
Q 5775 -175 5600 -525 
Q 4025 0 3225 1300 
Q 2800 200 875 -600 
Q 775 -350 500 -150 
Q 2425 375 2875 1725 
L 1550 1725 
Q 975 1725 600 1700 
L 600 2150 
Q 875 2125 1450 2125 
L 2925 2125 
L 2925 3400 
L 1750 3400 
Q 1275 3400 900 3375 
L 900 3850 
Q 1275 3825 1775 3825 
L 3575 3825 
Q 3925 4625 4075 5150 
Q 4325 5000 4675 4850 
z
M 2125 5125 
Q 2450 4725 2800 4175 
Q 2500 4025 2325 3875 
Q 2025 4450 1725 4825 
Q 1950 4975 2125 5125 
z
" transform="scale(0.015625)"/>
      <path id="SimHei-7cfb" d="M 5300 5200 
Q 5450 4950 5725 4675 
Q 4975 4650 4437 4587 
Q 3900 4525 3125 4450 
Q 3250 4325 3475 4225 
Q 3150 4025 2837 3762 
Q 2525 3500 2225 3275 
L 3475 3275 
Q 4100 3700 4525 4050 
Q 4775 3850 5125 3700 
Q 4775 3550 4450 3375 
Q 4125 3200 3387 2737 
Q 2650 2275 2125 1975 
Q 3600 2050 4875 2100 
Q 4750 2225 4225 2625 
Q 4475 2725 4650 2875 
Q 4950 2650 5337 2312 
Q 5725 1975 6075 1650 
Q 5775 1475 5600 1325 
Q 5400 1575 5225 1725 
Q 4550 1700 3625 1650 
L 3625 150 
Q 3625 -325 3387 -412 
Q 3150 -500 2525 -600 
Q 2475 -300 2300 -25 
Q 2875 -25 3012 12 
Q 3150 50 3150 300 
L 3150 1650 
Q 1625 1625 1075 1525 
Q 1000 1775 900 2050 
Q 1450 2100 1875 2300 
Q 2300 2500 2900 2900 
Q 2325 2900 2037 2875 
Q 1750 2850 1400 2800 
Q 1325 3075 1250 3325 
Q 1675 3325 2100 3662 
Q 2525 4000 2750 4400 
Q 1350 4350 925 4300 
Q 850 4550 750 4750 
Q 2150 4750 3250 4850 
Q 4350 4950 5300 5200 
z
M 4625 1250 
Q 4925 1025 5325 737 
Q 5725 450 6000 175 
Q 5800 0 5600 -225 
Q 5275 125 4925 400 
Q 4575 675 4275 875 
Q 4500 1050 4625 1250 
z
M 2200 875 
Q 1900 725 1537 375 
Q 1175 25 800 -300 
Q 575 -75 375 25 
Q 1075 450 1675 1225 
Q 1900 1050 2200 875 
z
" transform="scale(0.015625)"/>
     </defs>
     <use xlink:href="#SimHei-6027"/>
     <use xlink:href="#SimHei-522b" x="100"/>
     <use xlink:href="#SimHei-4e0e" x="200"/>
     <use xlink:href="#SimHei-8d2d" x="300"/>
     <use xlink:href="#SimHei-4e70" x="400"/>
     <use xlink:href="#SimHei-6570" x="500"/>
     <use xlink:href="#SimHei-91cf" x="600"/>
     <use xlink:href="#SimHei-7684" x="700"/>
     <use xlink:href="#SimHei-9500" x="800"/>
     <use xlink:href="#SimHei-552e" x="900"/>
     <use xlink:href="#SimHei-5173" x="1000"/>
     <use xlink:href="#SimHei-7cfb" x="1100"/>
    </g>
   </g>
  </g>
 </g>
</svg>
