<?xml version="1.0" encoding="utf-8" standalone="no"?>
<!DOCTYPE svg PUBLIC "-//W3C//DTD SVG 1.1//EN"
  "http://www.w3.org/Graphics/SVG/1.1/DTD/svg11.dtd">
<svg xmlns:xlink="http://www.w3.org/1999/xlink" width="1440pt" height="360pt" viewBox="0 0 1440 360" xmlns="http://www.w3.org/2000/svg" version="1.1">
 <metadata>
  <rdf:RDF xmlns:dc="http://purl.org/dc/elements/1.1/" xmlns:cc="http://creativecommons.org/ns#" xmlns:rdf="http://www.w3.org/1999/02/22-rdf-syntax-ns#">
   <cc:Work>
    <dc:type rdf:resource="http://purl.org/dc/dcmitype/StillImage"/>
    <dc:date>2023-08-01T18:13:05.390312</dc:date>
    <dc:format>image/svg+xml</dc:format>
    <dc:creator>
     <cc:Agent>
      <dc:title>Matplotlib v3.7.0, https://matplotlib.org/</dc:title>
     </cc:Agent>
    </dc:creator>
   </cc:Work>
  </rdf:RDF>
 </metadata>
 <defs>
  <style type="text/css">*{stroke-linejoin: round; stroke-linecap: butt}</style>
 </defs>
 <g id="figure_1">
  <g id="patch_1">
   <path d="M 0 360 
L 1440 360 
L 1440 0 
L 0 0 
z
" style="fill: #ffffff"/>
  </g>
  <g id="axes_1">
   <g id="patch_2">
    <path d="M 180 320.4 
L 1296 320.4 
L 1296 43.2 
L 180 43.2 
z
" style="fill: #ffffff"/>
   </g>
   <g id="matplotlib.axis_1">
    <g id="xtick_1">
     <g id="line2d_1">
      <defs>
       <path id="m5bb990e29d" d="M 0 0 
L 0 3.5 
" style="stroke: #000000; stroke-width: 0.8"/>
      </defs>
      <g>
       <use xlink:href="#m5bb990e29d" x="296.009206" y="320.4" style="stroke: #000000; stroke-width: 0.8"/>
      </g>
     </g>
     <g id="text_1">
      <!-- 2012-09 -->
      <g transform="translate(278.509206 334.275) scale(0.1 -0.1)">
       <defs>
        <path id="SimHei-32" d="M 300 250 
Q 325 625 650 925 
Q 975 1225 1475 1862 
Q 1975 2500 2125 2850 
Q 2275 3200 2237 3450 
Q 2200 3700 2000 3862 
Q 1800 4025 1537 4000 
Q 1275 3975 1037 3800 
Q 800 3625 675 3275 
L 200 3350 
Q 400 3925 712 4187 
Q 1025 4450 1450 4475 
Q 1700 4500 1900 4462 
Q 2100 4425 2312 4287 
Q 2525 4150 2662 3875 
Q 2800 3600 2762 3212 
Q 2725 2825 2375 2287 
Q 2025 1750 1025 600 
L 2825 600 
L 2825 150 
L 300 150 
L 300 250 
z
" transform="scale(0.015625)"/>
        <path id="SimHei-30" d="M 225 2537 
Q 250 3200 412 3587 
Q 575 3975 875 4225 
Q 1175 4475 1612 4475 
Q 2050 4475 2375 4112 
Q 2700 3750 2800 3200 
Q 2900 2650 2862 1937 
Q 2825 1225 2612 775 
Q 2400 325 1975 150 
Q 1550 -25 1125 187 
Q 700 400 525 750 
Q 350 1100 275 1487 
Q 200 1875 225 2537 
z
M 750 2687 
Q 675 2000 800 1462 
Q 925 925 1212 700 
Q 1500 475 1800 612 
Q 2100 750 2237 1162 
Q 2375 1575 2375 2062 
Q 2375 2550 2337 2950 
Q 2300 3350 2112 3675 
Q 1925 4000 1612 4012 
Q 1300 4025 1062 3700 
Q 825 3375 750 2687 
z
" transform="scale(0.015625)"/>
        <path id="SimHei-31" d="M 1400 3600 
Q 1075 3275 575 2975 
L 575 3450 
Q 1200 3875 1600 4450 
L 1900 4450 
L 1900 150 
L 1400 150 
L 1400 3600 
z
" transform="scale(0.015625)"/>
        <path id="SimHei-2d" d="M 2975 2125 
L 125 2125 
L 125 2525 
L 2975 2525 
L 2975 2125 
z
" transform="scale(0.015625)"/>
        <path id="SimHei-39" d="M 800 75 
Q 1350 1000 1700 1750 
Q 1075 1650 662 1912 
Q 250 2175 162 2625 
Q 75 3075 175 3437 
Q 275 3800 487 4037 
Q 700 4275 1000 4375 
Q 1300 4475 1537 4475 
Q 1775 4475 2025 4375 
Q 2275 4275 2475 4075 
Q 2675 3875 2750 3662 
Q 2825 3450 2825 3112 
Q 2825 2775 2575 2250 
Q 2325 1725 1350 75 
L 800 75 
z
M 662 2875 
Q 700 2550 937 2337 
Q 1175 2125 1450 2150 
Q 1725 2175 1887 2300 
Q 2050 2425 2200 2725 
Q 2300 3100 2250 3362 
Q 2200 3625 1987 3800 
Q 1775 3975 1525 3975 
Q 1375 4000 1137 3900 
Q 900 3800 762 3500 
Q 625 3200 662 2875 
z
" transform="scale(0.015625)"/>
       </defs>
       <use xlink:href="#SimHei-32"/>
       <use xlink:href="#SimHei-30" x="50"/>
       <use xlink:href="#SimHei-31" x="100"/>
       <use xlink:href="#SimHei-32" x="150"/>
       <use xlink:href="#SimHei-2d" x="200"/>
       <use xlink:href="#SimHei-30" x="250"/>
       <use xlink:href="#SimHei-39" x="300"/>
      </g>
     </g>
    </g>
    <g id="xtick_2">
     <g id="line2d_2">
      <g>
       <use xlink:href="#m5bb990e29d" x="426.573072" y="320.4" style="stroke: #000000; stroke-width: 0.8"/>
      </g>
     </g>
     <g id="text_2">
      <!-- 2013-01 -->
      <g transform="translate(409.073072 334.275) scale(0.1 -0.1)">
       <defs>
        <path id="SimHei-33" d="M 250 1225 
L 700 1300 
Q 800 975 1025 762 
Q 1250 550 1587 562 
Q 1925 575 2125 837 
Q 2325 1100 2300 1437 
Q 2275 1775 2037 1962 
Q 1800 2150 1275 2225 
L 1275 2550 
Q 1800 2600 2037 2825 
Q 2275 3050 2250 3412 
Q 2225 3775 1925 3937 
Q 1625 4100 1287 3975 
Q 950 3850 750 3275 
L 300 3350 
Q 450 3800 712 4100 
Q 975 4400 1425 4450 
Q 1875 4500 2212 4337 
Q 2550 4175 2687 3837 
Q 2825 3500 2725 3100 
Q 2625 2700 2150 2400 
Q 2500 2250 2687 1950 
Q 2875 1650 2812 1162 
Q 2750 675 2375 375 
Q 2000 75 1525 87 
Q 1050 100 700 387 
Q 350 675 250 1225 
z
" transform="scale(0.015625)"/>
       </defs>
       <use xlink:href="#SimHei-32"/>
       <use xlink:href="#SimHei-30" x="50"/>
       <use xlink:href="#SimHei-31" x="100"/>
       <use xlink:href="#SimHei-33" x="150"/>
       <use xlink:href="#SimHei-2d" x="200"/>
       <use xlink:href="#SimHei-30" x="250"/>
       <use xlink:href="#SimHei-31" x="300"/>
      </g>
     </g>
    </g>
    <g id="xtick_3">
     <g id="line2d_3">
      <g>
       <use xlink:href="#m5bb990e29d" x="554.996548" y="320.4" style="stroke: #000000; stroke-width: 0.8"/>
      </g>
     </g>
     <g id="text_3">
      <!-- 2013-05 -->
      <g transform="translate(537.496548 334.275) scale(0.1 -0.1)">
       <defs>
        <path id="SimHei-35" d="M 550 1325 
Q 725 650 1150 575 
Q 1575 500 1837 662 
Q 2100 825 2212 1087 
Q 2325 1350 2312 1675 
Q 2300 2000 2137 2225 
Q 1975 2450 1725 2525 
Q 1475 2600 1162 2525 
Q 850 2450 650 2175 
L 225 2225 
Q 275 2375 700 4375 
L 2675 4375 
L 2675 3925 
L 1075 3925 
Q 950 3250 825 2850 
Q 1200 3025 1525 3012 
Q 1850 3000 2150 2862 
Q 2450 2725 2587 2487 
Q 2725 2250 2787 2012 
Q 2850 1775 2837 1500 
Q 2825 1225 2725 937 
Q 2625 650 2425 462 
Q 2225 275 1937 162 
Q 1650 50 1275 75 
Q 900 100 562 350 
Q 225 600 100 1200 
L 550 1325 
z
" transform="scale(0.015625)"/>
       </defs>
       <use xlink:href="#SimHei-32"/>
       <use xlink:href="#SimHei-30" x="50"/>
       <use xlink:href="#SimHei-31" x="100"/>
       <use xlink:href="#SimHei-33" x="150"/>
       <use xlink:href="#SimHei-2d" x="200"/>
       <use xlink:href="#SimHei-30" x="250"/>
       <use xlink:href="#SimHei-35" x="300"/>
      </g>
     </g>
    </g>
    <g id="xtick_4">
     <g id="line2d_4">
      <g>
       <use xlink:href="#m5bb990e29d" x="686.63061" y="320.4" style="stroke: #000000; stroke-width: 0.8"/>
      </g>
     </g>
     <g id="text_4">
      <!-- 2013-09 -->
      <g transform="translate(669.13061 334.275) scale(0.1 -0.1)">
       <use xlink:href="#SimHei-32"/>
       <use xlink:href="#SimHei-30" x="50"/>
       <use xlink:href="#SimHei-31" x="100"/>
       <use xlink:href="#SimHei-33" x="150"/>
       <use xlink:href="#SimHei-2d" x="200"/>
       <use xlink:href="#SimHei-30" x="250"/>
       <use xlink:href="#SimHei-39" x="300"/>
      </g>
     </g>
    </g>
    <g id="xtick_5">
     <g id="line2d_5">
      <g>
       <use xlink:href="#m5bb990e29d" x="817.194476" y="320.4" style="stroke: #000000; stroke-width: 0.8"/>
      </g>
     </g>
     <g id="text_5">
      <!-- 2014-01 -->
      <g transform="translate(799.694476 334.275) scale(0.1 -0.1)">
       <defs>
        <path id="SimHei-34" d="M 2000 1100 
L 75 1100 
L 75 1525 
L 2100 4450 
L 2475 4450 
L 2475 1525 
L 3075 1525 
L 3075 1100 
L 2475 1100 
L 2475 150 
L 2000 150 
L 2000 1100 
z
M 2000 1525 
L 2000 3500 
L 600 1525 
L 2000 1525 
z
" transform="scale(0.015625)"/>
       </defs>
       <use xlink:href="#SimHei-32"/>
       <use xlink:href="#SimHei-30" x="50"/>
       <use xlink:href="#SimHei-31" x="100"/>
       <use xlink:href="#SimHei-34" x="150"/>
       <use xlink:href="#SimHei-2d" x="200"/>
       <use xlink:href="#SimHei-30" x="250"/>
       <use xlink:href="#SimHei-31" x="300"/>
      </g>
     </g>
    </g>
    <g id="xtick_6">
     <g id="line2d_6">
      <g>
       <use xlink:href="#m5bb990e29d" x="945.617952" y="320.4" style="stroke: #000000; stroke-width: 0.8"/>
      </g>
     </g>
     <g id="text_6">
      <!-- 2014-05 -->
      <g transform="translate(928.117952 334.275) scale(0.1 -0.1)">
       <use xlink:href="#SimHei-32"/>
       <use xlink:href="#SimHei-30" x="50"/>
       <use xlink:href="#SimHei-31" x="100"/>
       <use xlink:href="#SimHei-34" x="150"/>
       <use xlink:href="#SimHei-2d" x="200"/>
       <use xlink:href="#SimHei-30" x="250"/>
       <use xlink:href="#SimHei-35" x="300"/>
      </g>
     </g>
    </g>
    <g id="xtick_7">
     <g id="line2d_7">
      <g>
       <use xlink:href="#m5bb990e29d" x="1077.252014" y="320.4" style="stroke: #000000; stroke-width: 0.8"/>
      </g>
     </g>
     <g id="text_7">
      <!-- 2014-09 -->
      <g transform="translate(1059.752014 334.275) scale(0.1 -0.1)">
       <use xlink:href="#SimHei-32"/>
       <use xlink:href="#SimHei-30" x="50"/>
       <use xlink:href="#SimHei-31" x="100"/>
       <use xlink:href="#SimHei-34" x="150"/>
       <use xlink:href="#SimHei-2d" x="200"/>
       <use xlink:href="#SimHei-30" x="250"/>
       <use xlink:href="#SimHei-39" x="300"/>
      </g>
     </g>
    </g>
    <g id="xtick_8">
     <g id="line2d_8">
      <g>
       <use xlink:href="#m5bb990e29d" x="1207.81588" y="320.4" style="stroke: #000000; stroke-width: 0.8"/>
      </g>
     </g>
     <g id="text_8">
      <!-- 2015-01 -->
      <g transform="translate(1190.31588 334.275) scale(0.1 -0.1)">
       <use xlink:href="#SimHei-32"/>
       <use xlink:href="#SimHei-30" x="50"/>
       <use xlink:href="#SimHei-31" x="100"/>
       <use xlink:href="#SimHei-35" x="150"/>
       <use xlink:href="#SimHei-2d" x="200"/>
       <use xlink:href="#SimHei-30" x="250"/>
       <use xlink:href="#SimHei-31" x="300"/>
      </g>
     </g>
    </g>
   </g>
   <g id="matplotlib.axis_2">
    <g id="ytick_1">
     <g id="line2d_9">
      <defs>
       <path id="mf932c1e26d" d="M 0 0 
L -3.5 0 
" style="stroke: #000000; stroke-width: 0.8"/>
      </defs>
      <g>
       <use xlink:href="#mf932c1e26d" x="180" y="307.82505" style="stroke: #000000; stroke-width: 0.8"/>
      </g>
     </g>
     <g id="text_9">
      <!-- 0 -->
      <g transform="translate(168 311.26255) scale(0.1 -0.1)">
       <use xlink:href="#SimHei-30"/>
      </g>
     </g>
    </g>
    <g id="ytick_2">
     <g id="line2d_10">
      <g>
       <use xlink:href="#mf932c1e26d" x="180" y="257.725646" style="stroke: #000000; stroke-width: 0.8"/>
      </g>
     </g>
     <g id="text_10">
      <!-- 2000 -->
      <g transform="translate(153 261.163146) scale(0.1 -0.1)">
       <use xlink:href="#SimHei-32"/>
       <use xlink:href="#SimHei-30" x="50"/>
       <use xlink:href="#SimHei-30" x="100"/>
       <use xlink:href="#SimHei-30" x="150"/>
      </g>
     </g>
    </g>
    <g id="ytick_3">
     <g id="line2d_11">
      <g>
       <use xlink:href="#mf932c1e26d" x="180" y="207.626243" style="stroke: #000000; stroke-width: 0.8"/>
      </g>
     </g>
     <g id="text_11">
      <!-- 4000 -->
      <g transform="translate(153 211.063743) scale(0.1 -0.1)">
       <use xlink:href="#SimHei-34"/>
       <use xlink:href="#SimHei-30" x="50"/>
       <use xlink:href="#SimHei-30" x="100"/>
       <use xlink:href="#SimHei-30" x="150"/>
      </g>
     </g>
    </g>
    <g id="ytick_4">
     <g id="line2d_12">
      <g>
       <use xlink:href="#mf932c1e26d" x="180" y="157.526839" style="stroke: #000000; stroke-width: 0.8"/>
      </g>
     </g>
     <g id="text_12">
      <!-- 6000 -->
      <g transform="translate(153 160.964339) scale(0.1 -0.1)">
       <defs>
        <path id="SimHei-36" d="M 250 1612 
Q 275 1975 387 2225 
Q 500 2475 725 2850 
L 1750 4450 
L 2325 4450 
L 1275 2800 
Q 1950 2975 2350 2750 
Q 2750 2525 2887 2237 
Q 3025 1950 3037 1612 
Q 3050 1275 2937 950 
Q 2825 625 2537 362 
Q 2250 100 1737 75 
Q 1225 50 862 262 
Q 500 475 362 862 
Q 225 1250 250 1612 
z
M 1025 787 
Q 1250 550 1625 525 
Q 2000 500 2250 775 
Q 2500 1050 2500 1575 
Q 2500 2100 2187 2300 
Q 1875 2500 1487 2450 
Q 1100 2400 925 2075 
Q 750 1750 775 1387 
Q 800 1025 1025 787 
z
" transform="scale(0.015625)"/>
       </defs>
       <use xlink:href="#SimHei-36"/>
       <use xlink:href="#SimHei-30" x="50"/>
       <use xlink:href="#SimHei-30" x="100"/>
       <use xlink:href="#SimHei-30" x="150"/>
      </g>
     </g>
    </g>
    <g id="ytick_5">
     <g id="line2d_13">
      <g>
       <use xlink:href="#mf932c1e26d" x="180" y="107.427435" style="stroke: #000000; stroke-width: 0.8"/>
      </g>
     </g>
     <g id="text_13">
      <!-- 8000 -->
      <g transform="translate(153 110.864935) scale(0.1 -0.1)">
       <defs>
        <path id="SimHei-38" d="M 175 1375 
Q 175 1675 325 1962 
Q 475 2250 825 2425 
Q 525 2600 425 2812 
Q 325 3025 312 3300 
Q 300 3575 387 3775 
Q 475 3975 650 4150 
Q 825 4325 1037 4387 
Q 1250 4450 1500 4450 
Q 1750 4450 1950 4400 
Q 2150 4350 2375 4187 
Q 2600 4025 2700 3725 
Q 2800 3425 2687 3025 
Q 2575 2625 2100 2400 
Q 2525 2275 2700 2012 
Q 2875 1750 2875 1375 
Q 2875 1000 2762 775 
Q 2650 550 2512 400 
Q 2375 250 2137 162 
Q 1900 75 1537 75 
Q 1175 75 912 162 
Q 650 250 475 425 
Q 300 600 237 837 
Q 175 1075 175 1375 
z
M 687 1400 
Q 675 1100 787 875 
Q 900 650 1200 587 
Q 1500 525 1825 600 
Q 2150 675 2275 950 
Q 2400 1225 2362 1500 
Q 2325 1775 2050 1962 
Q 1775 2150 1450 2125 
Q 1125 2100 912 1900 
Q 700 1700 687 1400 
z
M 775 3350 
Q 775 3100 950 2875 
Q 1125 2650 1500 2650 
Q 1875 2650 2062 2875 
Q 2250 3100 2237 3412 
Q 2225 3725 2012 3875 
Q 1800 4025 1437 4000 
Q 1075 3975 925 3787 
Q 775 3600 775 3350 
z
" transform="scale(0.015625)"/>
       </defs>
       <use xlink:href="#SimHei-38"/>
       <use xlink:href="#SimHei-30" x="50"/>
       <use xlink:href="#SimHei-30" x="100"/>
       <use xlink:href="#SimHei-30" x="150"/>
      </g>
     </g>
    </g>
    <g id="ytick_6">
     <g id="line2d_14">
      <g>
       <use xlink:href="#mf932c1e26d" x="180" y="57.328032" style="stroke: #000000; stroke-width: 0.8"/>
      </g>
     </g>
     <g id="text_14">
      <!-- 10000 -->
      <g transform="translate(148 60.765532) scale(0.1 -0.1)">
       <use xlink:href="#SimHei-31"/>
       <use xlink:href="#SimHei-30" x="50"/>
       <use xlink:href="#SimHei-30" x="100"/>
       <use xlink:href="#SimHei-30" x="150"/>
       <use xlink:href="#SimHei-30" x="200"/>
      </g>
     </g>
    </g>
   </g>
   <g id="line2d_15">
    <path d="M 230.727273 307.324056 
L 231.797468 307.248907 
L 232.867664 307.349105 
L 233.93786 307.198807 
L 235.008055 307.198807 
L 236.078251 307.449304 
L 237.148446 307.148708 
L 238.218642 307.424254 
L 241.429229 307.299006 
L 242.499425 307.474354 
L 245.710012 307.449304 
L 246.780207 307.248907 
L 247.850403 306.747913 
L 248.920598 307.223857 
L 249.990794 307.524453 
L 252.131185 307.549503 
L 253.201381 307.223857 
L 255.341772 307.499404 
L 256.411968 307.173757 
L 258.552359 307.123658 
L 259.622555 306.221869 
L 260.69275 307.449304 
L 262.833142 307.299006 
L 263.903337 307.524453 
L 264.973533 305.770974 
L 266.043728 307.549503 
L 271.394707 307.349105 
L 274.605293 307.524453 
L 275.675489 306.97336 
L 276.745685 307.374155 
L 277.81588 307.349105 
L 278.886076 306.798012 
L 279.956272 307.349105 
L 281.026467 307.499404 
L 282.096663 307.474354 
L 284.237054 306.97336 
L 285.30725 307.073559 
L 286.377445 307.299006 
L 288.517837 307.299006 
L 289.588032 307.023459 
L 290.658228 306.99841 
L 291.728423 306.747913 
L 292.798619 307.223857 
L 293.868815 306.046521 
L 294.93901 307.273956 
L 296.009206 307.399205 
L 298.149597 307.173757 
L 299.219793 306.647714 
L 300.289988 306.823062 
L 301.360184 305.695825 
L 302.43038 307.148708 
L 303.500575 306.97336 
L 304.570771 307.299006 
L 305.640967 307.123658 
L 306.711162 305.996421 
L 307.781358 307.198807 
L 308.851554 306.572565 
L 309.921749 304.568588 
L 310.991945 307.223857 
L 312.06214 306.94831 
L 313.132336 306.522465 
L 314.202532 306.99841 
L 315.272727 305.745924 
L 316.342923 307.123658 
L 318.483314 307.098608 
L 319.55351 306.697813 
L 320.623705 302.213917 
L 321.693901 306.772962 
L 322.764097 306.823062 
L 323.834292 307.374155 
L 324.904488 307.449304 
L 325.974684 307.173757 
L 327.044879 307.599602 
L 329.18527 307.449304 
L 330.255466 307.223857 
L 331.325662 307.424254 
L 332.395857 307.424254 
L 333.466053 306.94831 
L 334.536249 306.597614 
L 335.606444 307.048509 
L 337.746835 307.148708 
L 339.887227 306.848111 
L 340.957422 307.399205 
L 342.027618 307.273956 
L 343.097814 306.92326 
L 344.168009 306.823062 
L 345.238205 307.123658 
L 346.3084 302.965408 
L 347.378596 307.223857 
L 348.448792 307.324056 
L 349.518987 306.94831 
L 350.589183 306.99841 
L 351.659379 306.522465 
L 352.729574 306.94831 
L 353.79977 307.123658 
L 354.869965 306.97336 
L 357.010357 307.374155 
L 358.080552 306.99841 
L 360.220944 306.848111 
L 361.291139 307.048509 
L 362.361335 306.447316 
L 363.43153 307.324056 
L 364.501726 307.123658 
L 365.571922 303.190855 
L 366.642117 307.098608 
L 367.712313 306.12167 
L 368.782509 306.246918 
L 369.852704 307.173757 
L 370.9229 301.161829 
L 371.993096 303.59165 
L 373.063291 304.518489 
L 374.133487 307.023459 
L 376.273878 307.248907 
L 377.344074 307.023459 
L 378.414269 307.324056 
L 379.484465 307.349105 
L 380.554661 294.673956 
L 381.624856 307.248907 
L 382.695052 306.622664 
L 383.765247 306.597614 
L 384.835443 307.349105 
L 386.975834 307.023459 
L 388.04603 307.173757 
L 389.116226 307.098608 
L 390.186421 307.198807 
L 391.256617 306.94831 
L 392.326812 307.299006 
L 393.397008 307.248907 
L 394.467204 307.349105 
L 395.537399 306.898211 
L 396.607595 307.098608 
L 398.747986 307.148708 
L 399.818182 306.747913 
L 400.888377 306.823062 
L 401.958573 307.374155 
L 403.028769 306.92326 
L 404.098964 307.098608 
L 405.16916 305.695825 
L 406.239356 307.048509 
L 408.379747 307.048509 
L 409.449942 307.349105 
L 410.520138 306.622664 
L 413.730725 307.148708 
L 415.871116 307.273956 
L 416.941312 306.898211 
L 418.011507 307.073559 
L 419.081703 306.547515 
L 420.151899 307.123658 
L 422.29229 307.399205 
L 423.362486 307.248907 
L 424.432681 307.349105 
L 425.502877 306.823062 
L 426.573072 307.449304 
L 427.643268 307.248907 
L 428.713464 307.223857 
L 429.783659 300.360239 
L 430.853855 306.672763 
L 431.924051 307.048509 
L 432.994246 306.747913 
L 434.064442 306.722863 
L 435.134638 307.248907 
L 436.204833 307.048509 
L 437.275029 306.97336 
L 440.485616 307.223857 
L 441.555811 306.021471 
L 442.626007 306.99841 
L 443.696203 306.522465 
L 444.766398 307.048509 
L 446.906789 306.97336 
L 447.976985 306.798012 
L 449.047181 307.223857 
L 450.117376 306.94831 
L 451.187572 306.94831 
L 452.257768 307.273956 
L 453.327963 307.223857 
L 454.398159 307.399205 
L 455.468354 307.374155 
L 456.53855 304.693837 
L 457.608746 307.273956 
L 458.678941 306.171769 
L 459.749137 307.349105 
L 460.819333 307.574553 
L 462.959724 307.699801 
L 470.451093 307.77495 
L 473.66168 307.724851 
L 474.731876 307.524453 
L 475.802071 305.445328 
L 476.872267 306.622664 
L 477.942463 306.823062 
L 479.012658 307.349105 
L 480.082854 306.97336 
L 481.153049 307.248907 
L 482.223245 292.018688 
L 483.293441 307.073559 
L 484.363636 307.324056 
L 486.504028 306.898211 
L 487.574223 306.547515 
L 489.714614 307.148708 
L 490.78481 306.798012 
L 492.925201 307.073559 
L 495.065593 307.048509 
L 496.135788 306.497416 
L 497.205984 307.173757 
L 498.27618 306.97336 
L 499.346375 307.148708 
L 500.416571 307.073559 
L 501.486766 306.347117 
L 502.556962 307.098608 
L 504.697353 307.173757 
L 505.767549 306.447316 
L 506.837745 307.173757 
L 508.978136 306.597614 
L 510.048331 305.996421 
L 511.118527 306.97336 
L 512.188723 307.023459 
L 513.258918 307.273956 
L 514.329114 307.273956 
L 515.39931 306.397217 
L 516.469505 306.99841 
L 517.539701 306.94831 
L 518.609896 306.747913 
L 520.750288 307.374155 
L 521.820483 307.223857 
L 523.960875 306.672763 
L 525.03107 304.643738 
L 526.101266 307.123658 
L 527.171461 306.14672 
L 528.241657 307.198807 
L 529.311853 306.196819 
L 530.382048 306.97336 
L 531.452244 307.048509 
L 533.592635 307.023459 
L 534.662831 307.073559 
L 535.733026 307.248907 
L 536.803222 307.223857 
L 537.873418 306.823062 
L 538.943613 306.597614 
L 540.013809 306.547515 
L 542.1542 307.073559 
L 543.224396 307.173757 
L 544.294591 307.123658 
L 545.364787 299.458449 
L 546.434983 305.695825 
L 547.505178 307.098608 
L 551.785961 307.023459 
L 552.856157 306.848111 
L 553.926352 307.148708 
L 554.996548 306.92326 
L 556.066743 306.848111 
L 557.136939 305.796024 
L 558.207135 306.597614 
L 559.27733 306.772962 
L 560.347526 306.722863 
L 561.417722 306.99841 
L 562.487917 306.92326 
L 563.558113 306.447316 
L 564.628308 301.838171 
L 565.698504 306.246918 
L 566.7687 306.97336 
L 567.838895 305.846123 
L 569.979287 306.547515 
L 571.049482 306.622664 
L 573.189873 306.97336 
L 574.260069 306.447316 
L 575.330265 305.470378 
L 578.540852 306.021471 
L 579.611047 306.722863 
L 580.681243 306.92326 
L 581.751438 306.722863 
L 582.821634 306.848111 
L 583.89183 306.246918 
L 584.962025 306.823062 
L 586.032221 305.044533 
L 587.102417 307.098608 
L 588.172612 307.123658 
L 589.242808 306.92326 
L 590.313003 306.572565 
L 592.453395 307.023459 
L 593.52359 304.41829 
L 594.593786 306.798012 
L 595.663982 306.823062 
L 596.734177 307.073559 
L 597.804373 307.449304 
L 598.874568 306.697813 
L 599.944764 307.374155 
L 601.01496 307.148708 
L 604.225547 307.223857 
L 605.295742 306.772962 
L 607.436133 307.173757 
L 609.576525 306.92326 
L 610.64672 306.547515 
L 611.716916 306.898211 
L 612.787112 306.12167 
L 613.857307 304.293042 
L 614.927503 307.098608 
L 615.997699 307.023459 
L 617.067894 306.572565 
L 618.13809 307.148708 
L 619.208285 307.374155 
L 620.278481 281.973757 
L 621.348677 307.148708 
L 622.418872 304.318091 
L 623.489068 306.547515 
L 624.559264 307.273956 
L 625.629459 306.99841 
L 626.699655 307.324056 
L 628.840046 306.772962 
L 629.910242 307.048509 
L 630.980437 307.073559 
L 632.050633 305.846123 
L 633.120829 307.349105 
L 634.191024 307.324056 
L 635.26122 306.372167 
L 636.331415 306.697813 
L 637.401611 307.248907 
L 638.471807 306.848111 
L 639.542002 305.846123 
L 640.612198 307.073559 
L 641.682394 299.683897 
L 642.752589 307.248907 
L 643.822785 306.672763 
L 644.89298 304.368191 
L 645.963176 306.798012 
L 647.033372 306.221869 
L 648.103567 307.148708 
L 649.173763 307.299006 
L 651.314154 306.297018 
L 652.38435 307.248907 
L 653.454545 307.198807 
L 654.524741 306.372167 
L 655.594937 307.349105 
L 656.665132 306.322068 
L 657.735328 307.123658 
L 658.805524 306.046521 
L 659.875719 307.248907 
L 663.086306 307.073559 
L 664.156502 307.273956 
L 665.226697 306.397217 
L 666.296893 306.848111 
L 667.367089 305.570577 
L 668.437284 306.92326 
L 669.50748 306.798012 
L 670.577675 306.547515 
L 671.647871 305.219881 
L 672.718067 306.572565 
L 673.788262 306.647714 
L 674.858458 306.92326 
L 675.928654 307.073559 
L 676.998849 306.722863 
L 678.069045 307.123658 
L 679.139241 306.898211 
L 681.279632 307.048509 
L 682.349827 305.194831 
L 683.420023 306.823062 
L 684.490219 306.672763 
L 685.560414 307.073559 
L 686.63061 307.098608 
L 688.771001 306.271968 
L 689.841197 302.890258 
L 690.911392 306.672763 
L 691.981588 297.75507 
L 693.051784 306.97336 
L 694.121979 307.048509 
L 695.192175 306.271968 
L 696.262371 306.14672 
L 697.332566 306.798012 
L 698.402762 306.221869 
L 699.472957 305.194831 
L 700.543153 306.772962 
L 701.613349 306.823062 
L 704.823936 306.647714 
L 705.894131 307.324056 
L 706.964327 307.123658 
L 708.034522 306.798012 
L 710.174914 306.372167 
L 711.245109 306.873161 
L 712.315305 304.944334 
L 713.385501 306.697813 
L 715.525892 306.873161 
L 716.596087 306.647714 
L 717.666283 307.123658 
L 718.736479 307.324056 
L 719.806674 307.324056 
L 720.87687 306.772962 
L 723.017261 307.198807 
L 726.227848 306.447316 
L 727.298044 306.823062 
L 728.368239 302.013519 
L 729.438435 306.798012 
L 730.508631 307.073559 
L 731.578826 306.94831 
L 732.649022 306.221869 
L 733.719217 306.647714 
L 734.789413 306.497416 
L 736.929804 306.672763 
L 738 307.023459 
L 740.140391 306.697813 
L 741.210587 306.347117 
L 742.280783 306.873161 
L 744.421174 306.647714 
L 745.491369 306.397217 
L 746.561565 306.873161 
L 747.631761 306.597614 
L 748.701956 306.697813 
L 749.772152 306.622664 
L 750.842348 304.318091 
L 751.912543 302.514513 
L 752.982739 307.123658 
L 754.052934 305.019483 
L 755.12313 306.94831 
L 756.193326 306.472366 
L 757.263521 303.541551 
L 758.333717 306.422266 
L 759.403913 306.898211 
L 760.474108 306.99841 
L 761.544304 306.697813 
L 762.614499 300.134791 
L 763.684695 306.647714 
L 764.754891 306.697813 
L 765.825086 306.472366 
L 766.895282 306.92326 
L 767.965478 306.672763 
L 769.035673 307.098608 
L 770.105869 306.447316 
L 771.176064 306.622664 
L 772.24626 306.09662 
L 774.386651 307.073559 
L 775.456847 306.898211 
L 776.527043 307.173757 
L 777.597238 307.048509 
L 778.667434 306.522465 
L 779.737629 306.92326 
L 780.807825 306.873161 
L 781.878021 296.803181 
L 784.018412 304.693837 
L 785.088608 306.873161 
L 786.158803 307.073559 
L 790.439586 306.898211 
L 791.509781 307.098608 
L 793.650173 306.97336 
L 794.720368 305.370179 
L 795.790564 303.266004 
L 796.860759 306.722863 
L 797.930955 306.898211 
L 799.001151 306.597614 
L 801.141542 305.796024 
L 802.211738 306.572565 
L 803.281933 306.722863 
L 804.352129 236.658847 
L 805.422325 306.597614 
L 806.49252 306.772962 
L 807.562716 306.497416 
L 808.632911 306.697813 
L 809.703107 306.722863 
L 810.773303 306.297018 
L 811.843498 306.597614 
L 812.913694 305.345129 
L 813.98389 306.97336 
L 815.054085 306.798012 
L 816.124281 307.073559 
L 817.194476 306.622664 
L 818.264672 306.647714 
L 819.334868 306.422266 
L 820.405063 306.848111 
L 822.545455 306.647714 
L 823.61565 306.221869 
L 824.685846 306.271968 
L 825.756041 306.848111 
L 826.826237 306.92326 
L 827.896433 306.422266 
L 828.966628 306.848111 
L 831.10702 306.747913 
L 832.177215 306.873161 
L 833.247411 305.169781 
L 834.317606 306.347117 
L 835.387802 307.048509 
L 836.457998 306.94831 
L 837.528193 306.697813 
L 839.668585 307.324056 
L 841.808976 307.474354 
L 842.879171 307.123658 
L 843.949367 307.624652 
L 849.300345 307.77495 
L 852.510932 307.524453 
L 853.581128 307.073559 
L 854.651323 306.246918 
L 855.721519 307.399205 
L 856.791715 306.246918 
L 857.86191 306.823062 
L 858.932106 307.098608 
L 860.002301 306.747913 
L 861.072497 306.92326 
L 862.142693 305.24493 
L 863.212888 306.97336 
L 866.423475 306.798012 
L 867.493671 304.46839 
L 868.563867 305.144732 
L 869.634062 306.196819 
L 870.704258 306.547515 
L 871.774453 307.048509 
L 872.844649 307.073559 
L 873.914845 306.472366 
L 874.98504 305.595626 
L 876.055236 306.347117 
L 877.125432 306.447316 
L 878.195627 303.917296 
L 879.265823 306.97336 
L 880.336018 304.343141 
L 881.406214 305.26998 
L 882.47641 306.572565 
L 883.546605 304.844135 
L 884.616801 295.149901 
L 885.686997 306.848111 
L 886.757192 306.94831 
L 887.827388 304.718887 
L 888.897583 306.722863 
L 889.967779 306.522465 
L 891.037975 306.697813 
L 892.10817 306.647714 
L 893.178366 306.747913 
L 894.248562 305.219881 
L 895.318757 306.848111 
L 896.388953 306.647714 
L 897.459148 306.271968 
L 898.529344 306.472366 
L 899.59954 306.522465 
L 900.669735 306.422266 
L 901.739931 306.497416 
L 902.810127 306.94831 
L 903.880322 306.873161 
L 906.020713 306.322068 
L 907.090909 306.447316 
L 908.161105 306.14672 
L 910.301496 306.622664 
L 911.371692 306.497416 
L 912.441887 305.645726 
L 913.512083 306.397217 
L 914.582278 305.971372 
L 915.652474 303.316103 
L 916.72267 306.647714 
L 917.792865 306.97336 
L 918.863061 306.722863 
L 919.933257 306.347117 
L 923.143843 306.196819 
L 924.214039 306.647714 
L 925.284235 305.770974 
L 926.35443 302.063618 
L 927.424626 306.271968 
L 928.494822 305.871173 
L 929.565017 306.572565 
L 930.635213 306.171769 
L 931.705409 306.372167 
L 932.775604 306.798012 
L 933.8458 307.023459 
L 934.915995 306.221869 
L 935.986191 304.618688 
L 937.056387 306.447316 
L 938.126582 306.547515 
L 939.196778 306.397217 
L 940.266974 306.647714 
L 941.337169 306.747913 
L 942.407365 306.14672 
L 943.47756 306.572565 
L 944.547756 302.564612 
L 945.617952 306.722863 
L 946.688147 306.447316 
L 947.758343 297.830219 
L 948.828539 306.271968 
L 949.898734 306.246918 
L 950.96893 306.422266 
L 952.039125 305.745924 
L 953.109321 306.246918 
L 954.179517 306.547515 
L 955.249712 306.09662 
L 956.319908 306.772962 
L 957.390104 301.537575 
L 958.460299 305.821074 
L 959.530495 303.716899 
L 960.60069 305.595626 
L 961.670886 306.221869 
L 962.741082 303.416302 
L 963.811277 306.347117 
L 964.881473 305.645726 
L 965.951669 304.44334 
L 967.021864 304.593638 
L 968.09206 295.675944 
L 969.162255 304.994433 
L 970.232451 301.211928 
L 971.302647 306.221869 
L 972.372842 306.14672 
L 973.443038 302.364215 
L 974.513234 306.14672 
L 975.583429 306.071571 
L 976.653625 306.347117 
L 977.72382 306.798012 
L 978.794016 301.93837 
L 979.864212 306.898211 
L 980.934407 306.447316 
L 983.074799 306.246918 
L 984.144994 306.021471 
L 985.21519 306.447316 
L 986.285386 306.672763 
L 987.355581 306.747913 
L 989.495972 305.946322 
L 991.636364 306.873161 
L 992.706559 306.572565 
L 993.776755 307.073559 
L 995.917146 306.046521 
L 998.057537 306.221869 
L 999.127733 306.798012 
L 1000.197929 306.547515 
L 1001.268124 306.747913 
L 1002.33832 306.397217 
L 1003.408516 306.447316 
L 1004.478711 306.647714 
L 1005.548907 306.597614 
L 1006.619102 306.271968 
L 1007.689298 306.747913 
L 1008.759494 306.472366 
L 1009.829689 306.422266 
L 1010.899885 306.547515 
L 1011.970081 291.667992 
L 1013.040276 306.898211 
L 1014.110472 306.397217 
L 1015.180667 304.267992 
L 1016.250863 306.873161 
L 1017.321059 306.697813 
L 1019.46145 306.92326 
L 1020.531646 306.672763 
L 1022.672037 307.023459 
L 1023.742232 304.668787 
L 1024.812428 306.14672 
L 1025.882624 305.921272 
L 1026.952819 306.597614 
L 1028.023015 305.946322 
L 1029.093211 306.647714 
L 1030.163406 307.098608 
L 1031.233602 306.547515 
L 1032.303797 306.823062 
L 1033.373993 306.522465 
L 1034.444189 306.647714 
L 1036.58458 306.497416 
L 1037.654776 307.048509 
L 1038.724971 307.098608 
L 1039.795167 306.597614 
L 1040.865362 306.422266 
L 1041.935558 301.287078 
L 1043.005754 306.196819 
L 1044.075949 300.660835 
L 1045.146145 307.148708 
L 1046.216341 306.97336 
L 1047.286536 306.647714 
L 1048.356732 306.597614 
L 1049.426928 303.040557 
L 1050.497123 300.134791 
L 1051.567319 306.798012 
L 1052.637514 296.477535 
L 1053.70771 307.023459 
L 1054.777906 306.347117 
L 1055.848101 306.547515 
L 1056.918297 306.497416 
L 1057.988493 301.487475 
L 1059.058688 306.622664 
L 1060.128884 305.019483 
L 1061.199079 306.697813 
L 1062.269275 305.846123 
L 1063.339471 306.196819 
L 1064.409666 306.372167 
L 1065.479862 306.422266 
L 1066.550058 306.722863 
L 1067.620253 306.522465 
L 1068.690449 305.445328 
L 1069.760644 305.695825 
L 1070.83084 306.372167 
L 1071.901036 306.046521 
L 1072.971231 301.236978 
L 1074.041427 306.672763 
L 1075.111623 306.92326 
L 1076.181818 306.747913 
L 1077.252014 305.871173 
L 1078.322209 306.196819 
L 1079.392405 305.445328 
L 1080.462601 306.472366 
L 1081.532796 306.547515 
L 1082.602992 305.370179 
L 1083.673188 306.622664 
L 1084.743383 307.098608 
L 1085.813579 305.470378 
L 1086.883774 305.24493 
L 1087.95397 305.470378 
L 1089.024166 298.732008 
L 1090.094361 306.647714 
L 1091.164557 306.622664 
L 1092.234753 306.09662 
L 1093.304948 303.366203 
L 1094.375144 306.071571 
L 1095.445339 305.896223 
L 1096.515535 306.071571 
L 1097.585731 237.585686 
L 1098.655926 306.297018 
L 1099.726122 305.921272 
L 1100.796318 305.971372 
L 1101.866513 305.670775 
L 1102.936709 306.196819 
L 1104.006904 305.545527 
L 1105.0771 306.547515 
L 1106.147296 306.447316 
L 1107.217491 306.497416 
L 1108.287687 306.873161 
L 1109.357883 306.697813 
L 1110.428078 306.97336 
L 1111.498274 306.622664 
L 1112.56847 305.921272 
L 1113.638665 306.622664 
L 1114.708861 306.597614 
L 1115.779056 293.596819 
L 1116.849252 306.372167 
L 1117.919448 306.347117 
L 1118.989643 305.620676 
L 1120.059839 306.347117 
L 1121.130035 306.196819 
L 1122.20023 305.896223 
L 1123.270426 304.693837 
L 1124.340621 305.194831 
L 1125.410817 306.12167 
L 1126.481013 306.12167 
L 1127.551208 306.397217 
L 1128.621404 306.071571 
L 1129.6916 306.046521 
L 1130.761795 287.685089 
L 1131.831991 306.297018 
L 1132.902186 306.447316 
L 1133.972382 305.720875 
L 1135.042578 305.645726 
L 1136.112773 306.823062 
L 1137.182969 305.921272 
L 1138.253165 305.846123 
L 1139.32336 306.497416 
L 1140.393556 306.322068 
L 1141.463751 305.745924 
L 1142.533947 306.522465 
L 1143.604143 306.422266 
L 1144.674338 305.996421 
L 1147.884925 306.14672 
L 1148.955121 306.046521 
L 1150.025316 306.297018 
L 1151.095512 306.347117 
L 1152.165708 305.695825 
L 1153.235903 288.436581 
L 1154.306099 306.071571 
L 1155.376295 55.8 
L 1156.44649 305.996421 
L 1157.516686 304.017495 
L 1158.586881 306.597614 
L 1159.657077 305.645726 
L 1160.727273 305.971372 
L 1161.797468 305.570577 
L 1162.867664 305.846123 
L 1163.93786 306.848111 
L 1165.008055 302.238966 
L 1166.078251 306.497416 
L 1167.148446 306.622664 
L 1168.218642 306.572565 
L 1169.288838 301.337177 
L 1170.359033 306.522465 
L 1171.429229 306.898211 
L 1172.499425 306.722863 
L 1173.56962 306.14672 
L 1174.639816 305.896223 
L 1175.710012 306.171769 
L 1176.780207 305.645726 
L 1177.850403 306.547515 
L 1178.920598 306.246918 
L 1179.990794 302.664811 
L 1181.06099 306.497416 
L 1182.131185 305.119682 
L 1183.201381 306.472366 
L 1185.341772 306.297018 
L 1186.411968 300.886282 
L 1187.482163 306.347117 
L 1188.552359 306.497416 
L 1189.622555 306.14672 
L 1190.69275 306.12167 
L 1191.762946 306.297018 
L 1192.833142 305.26998 
L 1194.973533 306.672763 
L 1196.043728 306.522465 
L 1197.113924 306.12167 
L 1198.18412 306.09662 
L 1199.254315 305.871173 
L 1200.324511 306.196819 
L 1201.394707 306.772962 
L 1203.535098 304.167793 
L 1204.605293 305.695825 
L 1205.675489 306.823062 
L 1206.745685 305.896223 
L 1207.81588 306.071571 
L 1208.886076 304.267992 
L 1209.956272 306.547515 
L 1211.026467 305.595626 
L 1212.096663 306.572565 
L 1213.166858 306.597614 
L 1214.237054 305.570577 
L 1215.30725 306.397217 
L 1216.377445 306.397217 
L 1217.447641 306.772962 
L 1218.517837 306.92326 
L 1219.588032 268.947913 
L 1220.658228 306.572565 
L 1222.798619 306.09662 
L 1223.868815 305.445328 
L 1224.93901 306.747913 
L 1226.009206 305.971372 
L 1227.079402 306.297018 
L 1228.149597 305.846123 
L 1229.219793 306.397217 
L 1230.289988 306.622664 
L 1231.360184 306.497416 
L 1232.43038 306.672763 
L 1233.500575 303.817097 
L 1234.570771 305.169781 
L 1235.640967 305.26998 
L 1236.711162 304.768986 
L 1237.781358 305.821074 
L 1238.851554 305.996421 
L 1239.921749 305.595626 
L 1240.991945 306.472366 
L 1242.06214 305.996421 
L 1243.132336 305.345129 
L 1244.202532 303.917296 
L 1245.272727 304.343141 
L 1245.272727 304.343141 
" clip-path="url(#p874df58c1f)" style="fill: none; stroke: #1f77b4; stroke-width: 1.5; stroke-linecap: square"/>
   </g>
   <g id="patch_3">
    <path d="M 180 320.4 
L 180 43.2 
" style="fill: none; stroke: #000000; stroke-width: 0.8; stroke-linejoin: miter; stroke-linecap: square"/>
   </g>
   <g id="patch_4">
    <path d="M 1296 320.4 
L 1296 43.2 
" style="fill: none; stroke: #000000; stroke-width: 0.8; stroke-linejoin: miter; stroke-linecap: square"/>
   </g>
   <g id="patch_5">
    <path d="M 180 320.4 
L 1296 320.4 
" style="fill: none; stroke: #000000; stroke-width: 0.8; stroke-linejoin: miter; stroke-linecap: square"/>
   </g>
   <g id="patch_6">
    <path d="M 180 43.2 
L 1296 43.2 
" style="fill: none; stroke: #000000; stroke-width: 0.8; stroke-linejoin: miter; stroke-linecap: square"/>
   </g>
  </g>
 </g>
 <defs>
  <clipPath id="p874df58c1f">
   <rect x="180" y="43.2" width="1116" height="277.2"/>
  </clipPath>
 </defs>
</svg>
